<?xml version="1.0" standalone="no"?>
<!DOCTYPE svg PUBLIC "-//W3C//DTD SVG 20010904//EN"
 "http://www.w3.org/TR/2001/REC-SVG-20010904/DTD/svg10.dtd">
<svg version="1.0" xmlns="http://www.w3.org/2000/svg"
 width="1500.000000pt" height="1500.000000pt" viewBox="0 0 1500.000000 1500.000000"
 preserveAspectRatio="xMidYMid meet">
<metadata>
Created by potrace 1.14, written by Peter Selinger 2001-2017
</metadata>
<g transform="translate(0.000000,1500.000000) scale(0.100000,-0.100000)"
fill="#000000" stroke="none">
<path d="M0 7500 l0 -7500 7500 0 7500 0 0 7500 0 7500 -7500 0 -7500 0 0
-7500z m9309 4428 c38 -74 93 -127 132 -128 34 0 139 -63 175 -104 22 -24 57
-74 79 -112 22 -37 54 -82 71 -99 18 -16 43 -53 57 -81 14 -28 42 -64 61 -80
95 -77 140 -122 152 -150 16 -38 58 -53 83 -29 23 20 36 19 70 -6 23 -17 33
-19 49 -10 15 8 27 7 49 -4 15 -8 34 -15 41 -15 27 0 108 -50 137 -85 17 -20
42 -50 58 -66 31 -35 33 -49 12 -89 -22 -43 -43 -50 -153 -50 -82 0 -104 -3
-123 -19 -29 -23 -82 -13 -115 22 -20 22 -23 35 -21 91 1 43 -2 69 -11 78 -11
11 -13 10 -11 -2 2 -16 -8 -48 -23 -67 -7 -9 -20 -7 -51 7 -22 10 -45 16 -49
13 -12 -7 -38 16 -38 34 0 27 -43 52 -89 53 -49 0 -70 18 -71 61 0 38 -34 76
-99 108 -76 39 -135 57 -203 65 -61 6 -56 9 -77 -54 -9 -30 -12 -310 -3 -375
12 -93 -1 -97 -145 -43 l-81 30 -114 -12 c-62 -6 -144 -15 -183 -20 -38 -5
-161 -14 -273 -20 -123 -7 -219 -17 -244 -26 -57 -20 -101 -18 -132 7 -23 18
-26 28 -26 82 -1 34 -6 72 -13 84 -11 20 -14 20 -45 8 -18 -8 -35 -21 -38 -30
-4 -8 -18 -15 -34 -15 -16 0 -41 -5 -56 -10 -33 -13 -47 2 -38 40 7 33 7 33
38 19 22 -10 29 -9 46 6 28 25 26 32 -20 55 -26 13 -40 27 -40 39 0 28 47 62
75 55 19 -5 23 -1 28 33 4 21 13 77 21 126 22 137 49 162 125 111 45 -30 86
-25 93 10 4 19 0 22 -26 24 -55 4 -66 11 -66 42 0 42 36 64 79 49 41 -14 131
3 153 29 26 31 16 47 -32 50 -76 4 -90 10 -90 37 0 34 36 69 63 61 74 -21 75
-21 88 23 14 49 27 51 54 12 11 -17 27 -32 36 -34 10 -3 29 -28 44 -57 26 -51
27 -52 63 -45 34 6 50 16 90 52 11 10 18 10 34 0 11 -6 29 -17 40 -23 10 -6
37 -10 60 -9 73 4 102 74 51 121 -16 14 -40 37 -56 51 -28 27 -115 48 -151 37
-32 -10 -7 17 30 32 44 18 98 18 114 -1 8 -10 31 -15 71 -15 48 0 63 4 85 25
15 14 32 25 39 25 7 0 18 7 25 15 16 19 39 19 61 -1 11 -9 26 -13 38 -9 17 5
18 10 9 36 -5 16 -7 36 -4 44 9 23 51 18 65 -7z m-2069 -47 c0 -13 -28 -22
-35 -11 -3 4 1 11 7 13 20 8 28 8 28 -2z m-390 -79 c13 -49 13 -52 -7 -52 -46
1 -69 53 -37 84 21 21 31 13 44 -32z m1063 13 c51 -13 27 -24 -53 -23 -43 1
-77 5 -74 10 3 4 9 6 14 3 4 -3 7 3 6 12 -1 22 44 34 64 17 8 -7 27 -16 43
-19z m392 -29 c16 -24 9 -66 -14 -80 -12 -8 -41 44 -41 72 0 39 32 44 55 8z
m-195 -31 c8 -10 8 -21 -3 -40 l-14 -27 -38 36 c-21 20 -43 36 -49 36 -7 0 -7
3 1 8 18 11 91 2 103 -13z m597 19 c-3 -3 -12 -4 -19 -1 -8 3 -5 6 6 6 11 1
17 -2 13 -5z m-2093 -27 c8 -14 8 -20 -4 -27 -33 -21 -85 -5 -74 23 11 30 60
32 78 4z m76 -3 c0 -2 -7 -4 -15 -4 -8 0 -15 4 -15 10 0 5 7 7 15 4 8 -4 15
-8 15 -10z m1720 8 c0 -5 -7 -9 -15 -9 -8 0 -15 4 -15 9 0 4 7 8 15 8 8 0 15
-4 15 -8z m-615 -12 c6 -10 -29 -50 -44 -50 -5 0 -11 -8 -15 -17 -3 -10 -19
-36 -36 -58 -18 -25 -29 -52 -30 -73 0 -42 -23 -66 -55 -58 -30 8 -39 35 -30
93 5 37 10 44 25 40 14 -4 20 2 25 24 4 19 22 40 53 62 68 47 95 57 107 37z
m375 -55 c5 -33 4 -43 -4 -35 -6 6 -12 29 -13 52 -4 53 8 42 17 -17z m-127
-60 c42 -32 45 -37 37 -68 -4 -19 -26 -53 -52 -79 -43 -45 -46 -46 -94 -42
-47 4 -50 3 -71 -31 -25 -38 -29 -60 -13 -70 6 -3 17 -19 25 -35 14 -28 14
-31 -5 -50 -40 -40 -75 -19 -71 44 2 38 -2 47 -23 61 -19 12 -36 15 -65 10
-46 -8 -66 -26 -58 -56 6 -24 -12 -59 -30 -59 -16 0 -33 32 -33 62 0 13 14 38
30 56 16 19 32 42 35 53 4 10 10 19 15 19 5 0 12 15 16 33 l7 32 13 -30 c7
-16 15 -39 19 -49 5 -18 8 -17 35 9 21 21 30 38 30 62 0 42 46 95 101 117 23
9 48 23 56 31 22 23 46 18 96 -20z m-2410 -64 c10 -7 17 -17 17 -22 0 -15 46
-74 61 -78 7 -3 29 -5 47 -5 l32 -1 0 -57 c0 -32 -1 -60 -2 -62 -8 -11 38 -45
69 -51 20 -3 60 -20 88 -36 29 -16 63 -32 76 -34 12 -3 25 -8 28 -12 3 -5 11
-8 16 -8 32 -2 135 -76 135 -97 0 -5 -4 -7 -9 -4 -27 17 -13 -70 14 -90 14
-10 18 -64 5 -64 -4 0 -6 -18 -6 -40 0 -22 3 -40 7 -40 7 0 20 -61 24 -110 3
-39 24 -108 35 -115 6 -4 5 -12 -3 -20 -8 -7 -14 -34 -15 -60 -2 -39 2 -52 23
-71 14 -13 25 -20 25 -16 1 4 8 -5 16 -20 8 -17 23 -28 35 -28 13 0 18 -4 13
-12 -4 -7 -3 -8 4 -4 7 4 12 1 12 -8 0 -23 27 -20 33 4 4 15 0 20 -14 20 -10
0 -19 4 -19 8 0 9 35 36 45 33 3 -1 14 6 23 16 17 19 39 21 119 8 62 -10 83 5
81 60 -2 45 17 74 49 75 9 0 9 10 -2 40 l-14 40 28 0 c21 0 28 -5 27 -17 0
-10 -5 -21 -9 -24 -4 -3 -1 -12 8 -19 13 -11 14 -10 9 5 -6 15 -3 17 14 13 15
-4 22 -2 22 9 0 10 8 13 25 11 18 -2 33 7 60 36 19 21 35 42 35 46 0 4 33 23
73 42 66 33 114 47 208 63 22 3 50 19 72 40 20 19 45 35 56 35 32 0 71 -22 71
-40 0 -16 37 -58 46 -52 3 1 11 -1 19 -6 13 -6 13 -14 4 -42 -6 -19 -17 -47
-25 -62 -11 -21 -12 -32 -4 -48 13 -25 4 -58 -21 -79 -25 -22 -34 -64 -17 -79
14 -11 15 -11 153 32 74 24 141 21 156 -5 29 -56 -24 -148 -101 -174 -27 -9
-50 -20 -52 -25 -2 -5 -46 -14 -98 -20 -137 -17 -138 -17 -150 15 -7 17 -17
25 -34 25 -14 0 -28 4 -31 10 -6 10 -32 9 -50 -2 -5 -3 -25 -5 -44 -3 -33 2
-57 -17 -131 -100 -27 -30 -59 -95 -66 -132 -3 -18 -11 -36 -16 -39 -5 -4 -3
-13 5 -22 21 -25 27 -62 17 -105 -4 -21 -6 -36 -3 -33 8 8 35 -22 29 -32 -3
-5 20 -9 50 -9 43 0 60 -5 79 -23 14 -13 21 -26 17 -29 -5 -3 -11 -14 -15 -23
-4 -13 -2 -16 11 -11 13 5 14 3 6 -6 -6 -7 -18 -13 -27 -15 -23 -3 -47 -26
-47 -45 1 -10 7 -4 17 14 10 18 18 25 21 17 10 -32 -66 -72 -138 -72 -19 0
-41 -6 -49 -14 -9 -8 -45 -15 -86 -17 -38 -2 -76 -10 -83 -17 -8 -7 -19 -9
-25 -5 -7 3 -9 3 -5 -2 4 -4 1 -14 -7 -21 -8 -9 -11 -25 -8 -42 3 -15 5 -35 5
-44 0 -10 3 -18 8 -18 15 0 8 -59 -9 -74 -15 -14 -20 -13 -46 1 -32 17 -163
21 -174 5 -3 -5 -28 -15 -55 -23 -27 -8 -51 -20 -53 -26 -3 -7 -16 -13 -29
-13 -13 0 -41 -9 -63 -21 -49 -25 -70 -20 -123 32 -33 32 -47 39 -74 37 -19
-1 -34 -5 -34 -9 0 -4 -10 -10 -22 -14 -43 -14 -68 -16 -68 -5 0 5 -9 10 -20
10 -24 0 -25 8 -6 35 7 11 16 36 19 55 6 37 34 155 37 155 1 0 3 8 5 18 2 10
13 39 25 63 35 76 13 102 -95 111 -54 4 -63 3 -67 -14 -3 -10 -17 -24 -31 -32
-25 -13 -29 -13 -50 7 -13 12 -35 22 -50 22 -31 0 -80 29 -86 50 -2 8 -3 48
-3 89 1 72 0 73 -24 68 -21 -4 -27 2 -43 39 -11 24 -19 57 -19 74 1 38 -20 80
-37 74 -7 -3 -27 8 -46 23 -18 15 -35 27 -38 27 -3 -1 -5 2 -4 7 2 5 -1 9 -6
9 -5 0 -11 7 -13 15 -3 12 -7 12 -35 -2 -18 -8 -31 -19 -28 -23 3 -4 -1 -10
-9 -13 -8 -3 -19 -32 -26 -64 -12 -65 -38 -129 -47 -119 -3 3 -12 1 -20 -5
-12 -11 -15 -7 -12 17 0 4 -4 10 -11 14 -6 4 -13 16 -14 26 -2 16 -15 20 -72
26 -38 5 -88 8 -112 8 -37 -1 -48 4 -80 40 -36 38 -68 53 -60 28 2 -6 -14 -30
-36 -53 -23 -24 -51 -54 -63 -69 -32 -37 -43 -33 -44 19 -2 68 -2 69 -29 82
-21 10 -29 9 -56 -8 -17 -10 -40 -19 -51 -19 -10 0 -24 -5 -31 -12 -7 -7 -12
-8 -12 -2 0 5 -16 8 -35 6 -28 -3 -36 -10 -45 -38 -11 -32 -60 -94 -75 -94
-22 0 -68 -48 -86 -91 -12 -27 -26 -49 -31 -49 -5 0 -21 12 -35 28 -15 15 -23
22 -20 15 5 -8 -10 -11 -55 -10 -57 1 -120 -6 -188 -19 -13 -3 -50 -31 -82
-62 -113 -113 -149 -132 -178 -92 -20 28 -36 25 -57 -10 -9 -16 -21 -30 -26
-30 -4 0 -13 14 -18 30 -12 33 -43 41 -53 14 -7 -18 19 -54 40 -54 16 0 37
-64 29 -89 -3 -10 -20 -25 -38 -32 -18 -7 -51 -25 -73 -40 -52 -33 -69 -26
-60 27 4 22 10 63 13 91 4 43 11 58 38 81 18 16 36 41 41 55 12 37 74 113 104
129 32 17 50 34 50 47 0 5 8 16 18 23 11 7 25 31 32 53 7 22 23 53 36 68 13
15 28 46 34 67 15 54 36 51 45 -5 4 -33 2 -54 -9 -75 -9 -17 -23 -45 -32 -62
-9 -18 -30 -45 -45 -60 -30 -28 -45 -68 -35 -93 9 -24 23 -18 47 23 27 43 44
62 57 62 24 0 41 37 35 73 -5 33 -2 42 22 68 30 31 54 36 86 19 29 -16 94 41
125 109 30 67 31 89 2 93 -18 2 -22 9 -21 28 10 104 8 120 -25 150 -53 48 -38
77 45 87 40 4 51 2 56 -11 9 -22 -1 -44 -24 -51 -26 -8 -27 -40 -8 -127 12
-54 24 -55 33 -3 4 20 15 39 24 43 24 9 39 21 89 71 30 30 40 47 32 52 -18 11
-35 1 -48 -27 -15 -34 -51 -29 -69 9 -13 27 -12 30 20 58 18 15 41 31 51 34
26 9 21 31 -11 44 -24 10 -36 8 -77 -9 -26 -11 -49 -19 -50 -18 0 2 -6 20 -12
41 -11 36 -10 39 15 48 15 6 37 20 50 32 29 27 28 27 46 2 9 -11 16 -15 16 -9
0 15 31 49 57 63 24 12 73 5 73 -10 0 -5 11 -9 25 -9 21 0 25 5 25 30 0 41 33
74 61 60 30 -17 76 -116 63 -138 -6 -9 -9 -23 -7 -29 6 -16 30 -17 35 -2 3 9
9 9 25 1 38 -21 43 7 13 70 -11 23 -20 47 -20 54 0 23 23 64 36 64 12 0 16 8
28 62 9 41 48 63 87 49 30 -10 34 -8 65 24 24 26 34 46 36 77 3 38 6 43 36 50
38 10 48 30 57 110 4 32 10 60 14 62 4 3 20 -2 35 -10 16 -7 32 -14 37 -14 4
0 24 -16 43 -36 l35 -36 8 28 c4 16 6 36 5 45 -4 22 24 42 49 36 23 -6 41 6
52 35 4 11 22 20 46 24 23 4 39 10 36 14 -7 11 39 50 66 56 13 3 51 5 85 5 33
0 65 3 71 7 19 12 89 8 106 -7z m1757 -211 c4 -20 13 -26 40 -30 51 -7 69 -22
74 -58 2 -18 11 -41 20 -51 19 -21 21 -61 4 -82 -15 -18 -107 -55 -127 -50
-17 3 -48 39 -57 65 -3 10 -19 41 -35 68 -16 27 -29 58 -29 68 0 26 68 101 89
98 9 -2 18 -14 21 -28z m398 -102 c-2 -6 -10 -14 -16 -16 -7 -2 -10 2 -6 12 7
18 28 22 22 4z m-3275 -117 c63 -15 65 -27 4 -35 -46 -6 -54 -11 -72 -47 -15
-28 -17 -29 -95 -29 -71 0 -79 2 -85 21 -9 29 22 69 66 85 40 15 129 17 182 5z
m6207 -166 c0 -9 -18 -14 -55 -17 -46 -2 -55 0 -55 14 0 22 48 37 83 25 15 -5
27 -15 27 -22z m45 -44 c3 -5 1 -12 -5 -16 -5 -3 -10 1 -10 9 0 18 6 21 15 7z
m455 -178 c64 -20 66 -20 120 -1 54 18 55 18 80 -2 14 -11 49 -32 78 -46 40
-19 57 -36 73 -66 12 -23 34 -52 50 -65 18 -16 30 -37 34 -61 13 -86 26 -113
54 -123 44 -16 73 -79 92 -204 9 -60 24 -145 32 -188 9 -42 21 -114 27 -159
11 -77 30 -129 70 -188 58 -86 68 -108 73 -160 3 -30 10 -76 17 -102 12 -46
11 -49 -24 -113 -26 -47 -34 -73 -30 -90 3 -14 3 -36 0 -49 l-6 -25 -26 26
c-15 15 -29 22 -34 17 -15 -15 14 -95 39 -109 15 -8 31 -33 43 -70 11 -31 48
-97 83 -146 39 -55 73 -117 90 -166 26 -73 31 -80 79 -108 56 -33 66 -54 39
-82 -34 -33 -52 -71 -66 -137 -14 -70 -14 -71 33 -94 14 -7 44 -45 68 -85 49
-83 54 -134 22 -206 -25 -54 -25 -69 0 -89 26 -23 48 -107 34 -130 -6 -9 -30
-28 -53 -42 -52 -31 -74 -70 -61 -106 15 -38 12 -90 -5 -104 -8 -7 -15 -9 -15
-4 0 4 -5 3 -11 -3 -9 -9 -5 -23 15 -57 19 -32 26 -59 26 -94 0 -27 7 -86 15
-131 12 -63 13 -90 5 -122 -15 -54 -3 -179 22 -236 12 -27 17 -52 12 -66 -8
-26 -70 -123 -96 -149 -24 -24 -62 -23 -96 2 -35 26 -59 18 -65 -23 -12 -72
-45 -166 -72 -200 -26 -35 -48 -51 -105 -78 -103 -47 -129 -62 -134 -76 -4
-10 -1 -20 9 -25 8 -5 13 -13 10 -19 -3 -5 0 -6 8 -3 8 3 18 1 21 -5 4 -5 22
-7 41 -4 23 4 35 2 35 -6 0 -6 -4 -11 -9 -11 -5 0 -14 -20 -20 -44 -6 -24 -18
-49 -26 -56 -38 -32 -51 -105 -60 -333 -8 -209 -27 -262 -96 -269 -31 -3 -34
-6 -37 -41 -6 -70 -91 -188 -201 -279 -18 -16 -37 -28 -41 -28 -17 0 -22 23
-10 45 12 22 10 28 -18 59 -30 34 -38 62 -44 156 -3 40 -28 51 -54 25 -25 -24
-35 -15 -56 54 l-19 63 -24 -26 c-27 -29 -42 -32 -79 -15 -20 9 -29 9 -41 -1
-8 -7 -14 -15 -11 -17 10 -11 -44 -53 -68 -53 -19 0 -25 -4 -20 -12 4 -7 4
-10 -1 -6 -4 4 -20 1 -35 -7 -34 -18 -44 -10 -24 20 12 18 13 29 5 43 -6 11
-7 22 -4 26 3 3 2 6 -3 6 -5 0 -22 11 -38 25 -17 14 -40 28 -53 31 -22 6 -33
24 -15 24 5 0 15 11 22 25 8 14 22 25 34 25 35 1 66 23 56 40 -7 11 -13 12
-35 2 -38 -17 -105 -15 -127 5 -23 21 -24 75 0 95 18 16 50 26 113 35 30 4 41
13 65 54 16 27 32 49 37 49 4 0 7 14 7 30 0 25 -4 30 -24 30 -14 0 -28 -5 -31
-10 -4 -6 -10 -8 -15 -5 -4 2 -18 -4 -31 -14 -30 -23 -49 -17 -49 15 0 17 -9
30 -30 42 -40 23 -38 46 5 66 22 11 35 24 35 36 0 26 -11 31 -70 32 -41 1 -50
5 -50 20 0 10 -6 18 -14 18 -8 0 -16 7 -20 15 -3 8 -12 15 -21 15 -8 0 -15 5
-15 11 0 6 -16 34 -35 63 -19 29 -35 63 -35 75 0 11 -4 21 -10 21 -5 0 -10 18
-10 40 0 22 4 40 9 40 5 0 9 41 10 90 2 81 0 90 -16 90 -11 0 -29 18 -45 45
-15 25 -34 45 -43 45 -22 0 -44 40 -49 92 -8 80 47 114 102 63 16 -15 39 -25
57 -25 30 0 87 -12 116 -24 24 -10 32 20 14 54 -17 34 -20 87 -4 92 16 5 14
65 -4 82 -8 9 -28 21 -42 26 -25 10 -26 12 -12 33 13 19 12 26 -4 65 -11 24
-19 59 -19 78 0 46 -17 43 -30 -6 -7 -28 -19 -44 -39 -54 -26 -14 -30 -14 -50
8 -11 12 -21 29 -21 37 0 8 -11 37 -25 64 -13 28 -25 55 -25 61 0 7 -11 19
-25 28 -35 23 -65 6 -65 -35 0 -23 13 -43 55 -86 72 -74 71 -103 -1 -103 -28
0 -28 0 -9 -47 20 -48 19 -70 -6 -78 -28 -9 -30 -6 -38 66 -1 4 -12 9 -26 11
-22 5 -25 1 -29 -36 -6 -49 -5 -75 3 -74 41 4 78 -27 73 -62 -10 -65 -55 -67
-121 -5 -26 25 -54 45 -62 45 -8 0 -33 21 -57 45 -24 25 -51 45 -60 45 -9 0
-42 20 -73 45 -32 25 -62 45 -68 45 -6 0 -11 4 -11 8 0 14 -58 42 -88 42 -17
0 -37 7 -46 15 -24 24 -44 17 -56 -19 -19 -58 -33 -61 -75 -20 -36 35 -39 36
-52 18 -7 -10 -13 -27 -13 -38 -1 -12 -3 -39 -7 -61 -3 -22 0 -78 6 -125 21
-148 22 -152 65 -176 45 -25 62 -23 70 12 9 34 46 33 46 -1 0 -14 1 -28 1 -32
3 -15 40 -35 54 -29 9 3 12 0 8 -10 -3 -7 0 -14 5 -14 7 0 9 -30 5 -89 -4 -53
-1 -107 5 -134 17 -67 25 -322 12 -363 -14 -42 -26 -37 -35 15 -7 44 -45 157
-61 184 -9 16 -13 17 -40 2 -33 -17 -58 -19 -82 -6 -9 4 -61 11 -115 15 -85 6
-98 4 -104 -10 -3 -9 0 -20 7 -24 14 -9 39 -88 40 -126 0 -22 -43 -116 -72
-153 -10 -13 -23 -41 -28 -62 -7 -25 -36 -68 -80 -118 -39 -43 -70 -84 -70
-90 0 -6 -4 -11 -9 -11 -5 0 -13 -9 -16 -20 -4 -11 -11 -18 -16 -15 -5 3 -17
1 -28 -5 -18 -9 -27 -24 -55 -90 -12 -27 -31 -56 -46 -71 -35 -34 -190 -96
-204 -81 -3 3 -6 -1 -6 -9 -1 -10 -4 -8 -11 4 -9 15 -5 23 17 42 32 27 97 61
134 69 34 7 36 54 3 63 -33 8 -28 22 11 38 37 16 187 149 198 175 3 9 19 28
35 41 43 37 69 79 83 136 11 44 11 57 0 78 -7 14 -16 22 -19 17 -3 -5 -35 -28
-69 -51 -40 -27 -69 -55 -77 -75 -8 -17 -31 -51 -52 -75 -35 -39 -44 -44 -92
-49 -53 -5 -54 -4 -48 19 4 13 7 31 7 39 0 8 18 26 40 40 22 13 44 36 50 50 6
14 31 54 55 90 56 81 61 123 11 85 -23 -17 -118 -20 -147 -5 -10 6 -19 18 -19
26 0 10 -6 14 -15 10 -9 -3 -15 0 -15 9 0 8 6 12 14 9 7 -3 20 1 27 8 8 8 34
15 59 17 25 1 47 8 49 14 2 6 25 31 50 55 39 38 43 46 33 62 -9 15 -9 26 -1
44 23 49 -12 70 -75 46 -41 -15 -65 13 -72 87 -5 44 -3 67 6 78 11 13 8 15
-18 15 -40 0 -50 -20 -41 -78 11 -73 -15 -90 -76 -52 -26 16 -31 25 -27 46 2
14 0 35 -6 47 -6 12 -13 34 -16 50 -4 15 -13 27 -21 27 -8 0 -15 9 -15 20 0
11 5 20 11 20 20 0 37 27 41 67 4 35 1 45 -23 68 -16 15 -29 31 -29 36 0 20
-41 8 -50 -15 -14 -37 -44 -49 -93 -37 -23 5 -67 16 -97 23 -30 7 -54 18 -52
23 1 6 -6 11 -18 13 -15 3 -20 -2 -20 -17 0 -15 -6 -21 -22 -21 -27 0 -128
-47 -128 -60 0 -6 -7 -10 -15 -10 -9 0 -18 -7 -22 -16 -5 -13 -7 -13 -14 -2
-7 9 -11 10 -16 2 -5 -7 -17 -13 -28 -15 -11 -2 -24 -14 -30 -27 -5 -12 -15
-22 -22 -22 -7 0 -20 -15 -29 -32 -9 -18 -30 -48 -46 -67 -19 -22 -27 -39 -22
-50 8 -19 29 -220 23 -225 -16 -14 -49 -15 -62 -1 -15 14 -26 9 -33 -15 -11
-38 -19 -49 -35 -53 -10 -3 -19 -1 -19 4 0 5 -11 9 -24 9 -19 0 -25 -7 -34
-41 -10 -39 -9 -42 26 -75 44 -41 76 -52 96 -31 13 13 13 17 -3 31 -21 19 -58
21 -64 4 -2 -7 -7 -11 -10 -8 -3 3 5 20 19 38 25 31 66 43 79 22 3 -5 11 -7
18 -5 7 3 27 -16 46 -40 18 -25 47 -53 62 -62 16 -10 29 -20 29 -24 0 -12 -59
-19 -104 -13 -34 5 -50 2 -70 -12 -14 -11 -26 -22 -26 -27 0 -13 71 -42 78
-32 13 19 51 35 57 25 3 -6 18 -10 32 -10 29 0 83 -29 83 -45 0 -20 -15 -32
-35 -28 -77 16 -102 15 -109 -3 -4 -10 -1 -21 6 -25 31 -19 -151 6 -200 28
-29 12 -61 23 -72 23 -10 0 -39 14 -63 30 -25 17 -50 30 -55 30 -6 0 -19 11
-30 25 -25 31 -45 32 -65 1 -15 -22 -13 -66 3 -66 4 0 11 -17 15 -37 4 -22 20
-53 40 -73 18 -19 45 -57 60 -85 15 -27 33 -54 41 -58 20 -11 17 -27 -5 -27
-10 0 -31 16 -45 35 -15 19 -33 35 -41 35 -7 0 -24 13 -37 29 -13 15 -39 39
-58 52 -19 13 -37 26 -40 29 -3 3 -13 6 -23 7 -10 0 -16 -1 -13 -4 2 -3 -16
-34 -40 -70 -26 -36 -43 -71 -40 -79 7 -17 -29 -34 -65 -30 -20 2 -24 -2 -23
-21 0 -13 10 -32 22 -44 12 -11 22 -26 22 -34 0 -8 5 -15 10 -15 6 0 10 -9 10
-19 0 -11 6 -21 13 -24 6 -3 -34 -5 -90 -4 -56 0 -100 4 -97 9 4 7 -10 10 -33
7 -3 0 -10 7 -15 16 -7 11 -20 15 -42 14 -17 -2 -37 0 -44 5 -7 4 -12 2 -12
-4 0 -6 -5 -8 -12 -4 -8 5 -9 2 -5 -9 5 -13 0 -17 -21 -17 -16 0 -32 4 -38 9
-5 4 -26 11 -46 14 -30 4 -42 1 -63 -19 -14 -13 -35 -28 -46 -34 -11 -6 -17
-15 -14 -20 3 -4 -3 -6 -14 -3 -13 3 -20 -2 -24 -17 -5 -18 -11 -22 -36 -18
-17 3 -31 1 -31 -3 0 -16 -38 4 -48 25 -7 16 -6 29 4 47 7 13 14 20 14 14 0
-5 7 1 15 15 7 14 16 59 20 101 8 87 -3 119 -55 162 -26 22 -38 25 -82 22 -29
-2 -61 1 -70 6 -12 6 -18 6 -18 -1 0 -16 -40 -12 -58 7 -16 15 -15 16 10 11
20 -4 25 -1 23 11 -2 9 -4 18 -4 21 -1 3 -6 -2 -11 -10 -6 -9 -10 -10 -10 -3
0 7 18 27 40 44 47 38 62 81 43 120 -19 39 -28 89 -14 89 6 0 11 15 11 34 0
27 -5 36 -22 41 -32 11 -98 8 -113 -5 -18 -15 -81 -16 -100 0 -33 28 -3 63 65
74 23 4 54 16 68 26 13 11 31 20 38 20 8 0 14 4 14 10 0 5 6 7 13 5 8 -4 13 9
15 42 2 27 12 62 22 80 10 18 16 35 11 37 -11 7 -2 109 11 117 7 4 4 17 -8 38
-16 26 -16 33 -5 40 11 7 8 16 -14 45 -15 20 -24 36 -20 36 3 0 0 7 -9 15 -8
8 -18 15 -22 15 -12 0 -73 67 -67 74 4 3 1 6 -5 6 -7 0 -7 8 2 25 7 14 12 48
12 77 -1 28 0 46 2 40 2 -7 26 -12 58 -12 47 0 54 2 54 20 0 11 4 20 9 20 5 0
13 -9 16 -20 3 -11 13 -20 22 -20 23 0 63 -47 56 -66 -5 -13 -2 -15 18 -9 70
23 172 -17 185 -71 6 -23 10 -25 38 -20 17 4 33 11 34 16 2 6 10 10 17 10 7 0
28 17 46 38 17 20 38 41 45 45 17 10 64 -14 114 -59 34 -31 42 -34 61 -24 12
7 19 8 15 2 -3 -6 -2 -13 4 -17 5 -3 10 0 10 8 0 10 15 14 50 16 72 2 96 15
121 63 21 43 58 86 60 71 2 -18 17 45 18 77 1 24 8 40 22 50 12 8 28 21 35 28
8 7 14 10 14 7 0 -4 16 2 36 14 19 12 44 21 55 21 10 0 19 2 19 4 0 2 3 11 6
19 4 11 -2 14 -28 11 -18 -3 -44 -6 -58 -7 -14 -2 -35 -9 -47 -15 -19 -10 -24
-9 -37 10 -9 12 -16 27 -16 33 0 6 -13 12 -30 13 -16 1 -30 -1 -30 -6 0 -13
-79 -6 -96 9 -8 7 -13 18 -10 24 2 7 -1 18 -7 25 -9 10 -9 11 1 6 7 -4 12 -2
12 5 0 7 3 10 6 6 9 -9 44 26 44 44 0 19 -31 35 -82 44 -44 7 -49 21 -13 37
24 11 25 11 5 25 -11 8 -20 23 -20 33 0 10 -4 20 -10 22 -5 2 -14 17 -19 35
-9 32 -9 32 33 38 43 7 43 7 55 63 7 32 14 65 16 74 2 10 -10 35 -27 55 -28
36 -29 41 -23 102 6 54 5 63 -8 58 -36 -13 -106 -18 -125 -8 -21 11 -56 75
-72 130 -6 23 -5 35 6 46 35 35 92 3 121 -68 24 -60 59 -86 93 -71 l22 10 -28
27 c-22 22 -27 36 -26 67 2 23 -3 44 -13 53 -24 25 -19 56 13 67 15 6 43 19
63 30 44 24 70 25 134 6 42 -13 52 -13 83 0 19 7 45 14 59 14 13 0 22 4 19 9
-5 8 59 75 76 79 24 7 78 37 78 44 0 16 44 58 62 58 10 0 18 5 18 10 0 6 8 10
18 10 10 0 23 5 28 10 13 13 107 -3 112 -19 2 -6 10 -11 17 -11 7 0 15 -5 17
-11 5 -15 122 -13 126 1 2 6 8 8 13 4 5 -3 9 -1 9 5 0 5 15 8 33 7 19 -1 31
-6 30 -14 -2 -6 4 -12 13 -12 8 0 12 5 9 10 -3 6 1 17 9 26 9 8 16 12 16 7 0
-4 5 0 11 10 6 9 15 14 21 11 7 -5 9 -1 5 9 -4 10 -2 14 7 11 9 -3 13 7 14 35
2 36 -2 42 -28 56 -17 9 -30 13 -30 10 0 -3 -10 4 -22 15 -13 12 -24 17 -26
12 -5 -16 -53 0 -68 23 -8 13 -42 44 -76 70 l-60 48 32 29 c28 24 28 33 -2 29
-9 -1 -28 57 -28 85 0 14 6 24 15 24 18 0 65 46 65 64 0 8 6 16 13 19 18 7 67
-3 67 -14 0 -5 9 -9 21 -9 17 0 20 -4 16 -23 -10 -37 5 -46 83 -53 96 -9 121
-22 164 -87 51 -77 175 -138 160 -79 -6 21 30 45 57 37 23 -8 25 -40 4 -61
-23 -23 -18 -37 17 -54 68 -33 50 -100 -26 -100 -34 0 -45 -4 -49 -19 -2 -10
-1 -25 4 -32 14 -22 10 -49 -6 -49 -8 0 -20 10 -26 23 -14 28 -58 67 -75 67
-13 0 -69 -50 -95 -84 -12 -17 -12 -19 0 -11 11 6 13 4 8 -7 -6 -17 29 -38 62
-38 10 0 24 -7 31 -15 10 -11 9 -18 -4 -30 -12 -12 -32 -16 -83 -14 -61 2 -66
1 -70 -19 -1 -12 2 -22 7 -22 6 0 10 -7 10 -15 0 -8 8 -15 18 -15 10 0 24 -9
32 -20 8 -11 25 -20 38 -20 25 0 59 -15 80 -37 24 -23 56 -14 112 32 51 42 59
45 106 44 57 -3 94 -25 94 -58 0 -12 11 -44 25 -73 25 -53 33 -122 15 -133
-26 -16 5 -95 44 -113 26 -12 34 -62 10 -62 -8 0 -14 -4 -14 -9 0 -5 -10 -7
-21 -4 -14 4 -25 0 -31 -11 -5 -9 -16 -16 -23 -16 -10 0 -15 -11 -16 -32 -1
-18 -3 -44 -4 -58 -2 -14 4 -41 13 -60 8 -19 14 -39 13 -43 -4 -22 44 2 59 28
20 36 80 75 80 52 0 -14 59 -31 61 -18 1 3 3 23 4 43 2 20 13 46 24 57 23 23
27 51 11 67 -5 5 -12 32 -14 59 -2 28 -4 53 -5 57 -1 5 -17 25 -36 46 l-34 39
25 37 c28 41 44 39 44 -4 0 -16 10 -41 23 -56 20 -23 26 -25 45 -15 12 6 29
26 38 43 20 38 38 58 54 58 18 0 120 52 120 62 0 4 9 8 19 8 32 0 44 56 31
142 -22 149 -22 176 -3 210 10 18 21 35 25 39 4 3 11 32 16 66 7 52 6 62 -9
71 -21 14 -13 54 20 101 46 64 17 118 -61 113 -47 -3 -48 -2 -48 25 0 43 12
56 36 38 10 -8 27 -15 37 -15 9 0 17 -5 17 -12 0 -9 3 -9 12 0 20 20 63 14 89
-14 13 -14 23 -27 22 -30 -21 -35 39 -44 265 -37 191 5 240 12 227 33 -3 4 2
21 10 36 21 41 19 54 -10 54 -14 0 -25 -4 -25 -9 0 -19 -32 -41 -59 -41 -16 0
-40 9 -53 20 -20 15 -42 20 -104 21 -44 1 -96 8 -116 16 -32 13 -38 20 -38 44
0 17 6 32 15 35 8 4 15 10 15 16 0 5 -4 7 -9 3 -5 -3 -16 1 -23 9 -8 7 -30 21
-48 31 -19 10 -43 26 -53 36 -11 12 -32 19 -55 19 -20 0 -52 9 -70 20 -25 15
-43 19 -68 14 -18 -3 -45 -3 -59 0 -22 6 -25 12 -25 50 0 43 8 52 63 70 10 3
17 16 18 33 0 15 3 23 5 16 4 -9 11 -9 30 -1 26 12 35 44 9 35 -8 -4 -17 -2
-20 4 -4 5 -10 7 -14 5 -18 -12 -33 13 -26 40 5 16 8 31 7 35 0 3 14 4 31 2
63 -5 86 6 97 46 11 42 43 81 67 81 24 0 81 39 88 60 4 14 19 21 53 26 26 3
62 15 80 25 19 11 37 17 42 14 5 -3 11 1 13 7 4 10 8 10 15 -1 11 -16 2 -63
-22 -108 -11 -23 -14 -45 -10 -71 5 -30 0 -50 -20 -90 -31 -61 -31 -62 -7 -62
10 0 24 -7 31 -16 8 -8 30 -23 49 -33 20 -10 50 -26 66 -35 17 -9 37 -16 46
-16 9 0 33 -20 53 -44 20 -25 71 -68 114 -95 42 -28 90 -62 106 -76 36 -31 54
-32 62 -1 12 51 -71 166 -120 166 -25 0 -79 40 -124 93 -13 15 -29 27 -35 27
-13 0 -132 77 -147 95 -15 17 -4 55 16 55 8 0 14 9 14 20 0 12 -7 20 -16 20
-12 0 -11 5 7 19 15 12 28 16 34 10 15 -15 102 -11 119 7 9 8 16 19 16 23 0
14 58 10 71 -5 6 -7 9 -23 6 -35 -5 -20 -2 -20 76 -18 82 2 174 -21 162 -41
-3 -5 -1 -11 5 -15 5 -3 10 -19 10 -35 0 -31 45 -91 84 -112 29 -16 225 -6
235 11 4 5 24 11 46 13 23 3 39 10 38 16 -2 6 4 9 11 6 15 -6 76 33 76 47 0 4
-9 11 -20 14 -14 4 -30 -2 -52 -20 -19 -16 -37 -24 -47 -20 -9 4 -32 9 -52 12
-30 4 -40 0 -67 -26 -17 -18 -33 -27 -37 -21 -3 5 -15 10 -26 10 -32 0 -58 39
-48 70 11 28 69 70 98 70 11 0 23 5 26 10 3 6 21 10 39 10 19 0 33 5 34 13 6
75 12 92 46 124 20 20 36 42 36 49 0 8 5 14 10 14 6 0 10 6 10 13 0 20 31 44
64 50 23 4 34 -1 53 -22 52 -56 76 -90 55 -77 -7 4 -12 2 -12 -3 0 -6 -8 -11
-17 -11 -20 0 -63 -57 -63 -83 0 -9 9 -34 20 -54 11 -21 20 -43 20 -50 0 -7 9
-17 19 -23 11 -5 27 -18 37 -27 10 -10 20 -18 23 -19 3 0 19 -4 35 -9 19 -5
36 -4 49 4 11 7 16 8 12 2 -3 -6 1 -11 10 -11 10 0 13 5 9 12 -5 7 -2 9 7 6
25 -10 79 19 79 42 0 11 5 20 10 20 6 0 10 5 10 11 0 5 -4 8 -8 5 -5 -3 -9 2
-9 10 0 22 30 12 33 -11 2 -11 10 -25 18 -31 9 -6 16 -13 16 -16 0 -14 -41
-49 -59 -51 -16 -1 -19 -6 -14 -27 10 -42 22 -50 80 -50 30 0 63 -5 73 -10 21
-11 32 -1 36 37 2 17 -8 31 -32 49 -50 39 -49 41 45 122 l35 29 -37 43 c-36
42 -48 85 -26 92 6 2 13 31 16 65 5 60 5 61 -23 76 -16 8 -35 13 -42 11 -7 -1
-9 0 -4 2 8 4 7 26 -3 80 -4 16 -12 22 -32 22 -19 0 -37 10 -58 34 -16 19 -38
39 -47 44 -19 10 -14 19 44 72 28 26 47 35 84 38 63 6 82 24 66 59 -7 14 -12
46 -12 70 0 39 -5 47 -42 79 -23 20 -52 36 -64 36 -30 0 -74 20 -74 34 0 21
-65 56 -104 56 -35 0 -39 3 -53 40 -9 22 -22 41 -30 41 -56 5 -91 30 -60 43
25 11 164 -2 227 -21z m-716 -30 c3 -54 27 -67 62 -34 11 10 43 26 71 35 28 9
57 24 63 32 17 20 54 17 75 -6 13 -14 16 -28 11 -54 -10 -52 -29 -63 -73 -42
-34 16 -36 16 -77 -7 -26 -16 -51 -23 -71 -20 -42 6 -101 -24 -125 -64 -28
-48 -26 -81 5 -93 14 -5 25 -16 25 -25 0 -21 -17 -19 -47 5 -28 22 -58 26 -68
10 -3 -5 -21 -10 -40 -10 -22 0 -41 -8 -56 -25 -32 -33 -69 -32 -103 4 -15 16
-43 32 -61 35 -19 4 -44 19 -58 36 -23 27 -28 28 -104 28 -87 0 -153 20 -153
46 0 9 -4 16 -10 16 -5 0 -10 9 -10 20 0 11 5 20 11 20 5 0 8 4 5 8 -10 16 60
31 164 36 58 3 113 8 122 11 18 7 54 -22 76 -60 8 -15 21 -20 53 -20 40 0 44
-2 53 -32 10 -38 31 -42 67 -15 13 10 48 31 77 47 28 15 52 34 52 40 0 7 7 26
15 41 8 16 15 38 15 50 0 47 31 36 34 -13z m-6489 -8 c0 -25 -44 -40 -52 -18
-4 10 1 21 12 30 24 17 40 12 40 -12z m6869 -21 c9 -3 16 -14 16 -23 1 -22 20
-44 53 -58 28 -13 32 -21 19 -38 -13 -19 -72 -2 -72 21 0 10 -7 13 -24 8 -18
-4 -28 0 -40 17 -20 29 -20 43 0 63 17 18 24 19 48 10z m-1528 -17 c57 -33 74
-55 74 -93 0 -22 -4 -34 -8 -27 -4 6 -35 16 -70 23 -43 7 -70 19 -88 37 -29
29 -25 53 8 53 13 0 30 5 38 10 19 12 20 12 46 -3z m-5421 -135 c-2 -15 -13
-33 -24 -42 -10 -8 -24 -31 -30 -51 -15 -46 -46 -63 -92 -52 -30 8 -34 13 -37
45 -4 44 28 78 97 104 25 9 50 23 54 31 14 23 38 -4 32 -35z m7223 -70 c2 -8
-8 -12 -28 -12 -27 0 -30 2 -21 14 14 16 43 15 49 -2z m-1349 -38 c8 -16 32
-41 52 -54 54 -34 68 -103 26 -134 -27 -20 -31 -50 -14 -89 11 -25 15 -28 47
-22 19 4 40 7 45 8 6 1 11 -10 13 -24 2 -18 -8 -39 -32 -68 -20 -24 -36 -51
-36 -62 0 -10 -4 -19 -9 -19 -5 0 -16 -3 -24 -6 -17 -6 -41 53 -32 78 10 25
-9 29 -65 16 -48 -11 -52 -14 -75 -64 -28 -61 -33 -65 -86 -69 -22 -1 -42 -5
-45 -7 -6 -7 -74 15 -74 24 0 5 0 11 1 14 0 3 -10 15 -23 26 l-23 20 23 -6
c16 -5 22 -3 22 7 0 17 42 28 62 16 10 -6 20 1 32 22 9 16 21 29 27 29 15 0
10 33 -10 71 -15 27 -18 51 -16 109 2 41 4 90 4 108 1 31 3 33 34 32 17 -1 37
-1 42 0 6 1 13 2 18 1 14 -2 47 39 47 60 0 33 50 21 69 -17z m-1533 -51 c21
-24 22 -30 10 -48 -19 -28 -83 -28 -102 1 -13 19 -12 24 12 47 34 34 51 34 80
0z m3034 -17 c0 -3 -4 -8 -10 -11 -5 -3 -10 -1 -10 4 0 6 5 11 10 11 6 0 10
-2 10 -4z m-7274 -63 c-5 -12 -10 -13 -17 -6 -8 8 -7 18 2 34 12 21 14 22 17
6 2 -10 1 -25 -2 -34z m7144 -8 c0 -14 -4 -25 -10 -25 -5 0 -10 11 -10 25 0
14 5 25 10 25 6 0 10 -11 10 -25z m-65 -67 c14 -6 25 -16 25 -22 1 -6 15 -35
33 -65 27 -46 43 -60 106 -93 92 -48 101 -55 101 -83 0 -16 -8 -25 -26 -29
-30 -8 -56 6 -104 58 -33 35 -33 35 -64 18 -43 -22 -76 -16 -108 19 -21 22
-28 41 -30 77 -4 83 0 103 19 117 22 18 17 17 48 3z m-337 -113 c-2 -3 -20 -8
-39 -11 -92 -15 -109 -16 -109 -4 0 8 12 11 35 8 19 -2 35 0 35 4 0 4 19 8 42
8 23 0 39 -2 36 -5z m-1298 -95 c0 -5 -4 -10 -10 -10 -5 0 -10 5 -10 10 0 6 5
10 10 10 6 0 10 -4 10 -10z m-4780 -132 c-1 -63 -13 -94 -38 -93 -22 0 -32 28
-32 93 l0 62 35 0 35 0 0 -62z m186 28 c19 -20 18 -26 -6 -26 -13 0 -20 7 -20
20 0 24 6 25 26 6z m-326 -21 c12 -22 12 -28 -2 -41 -21 -21 -56 -10 -64 21
-8 31 2 45 30 45 14 0 28 -10 36 -25z m4972 -125 c4 0 8 -5 8 -11 0 -15 -81
-3 -91 13 -10 16 8 27 32 21 12 -3 19 0 20 8 0 8 5 4 11 -8 6 -13 15 -23 20
-23z m-5581 -2 c10 -13 18 -35 19 -50 0 -25 -3 -28 -36 -28 -27 0 -35 4 -31
14 3 8 9 31 13 50 7 42 10 43 35 14z m-93 -36 c5 -34 -28 -69 -58 -62 -21 5
-25 12 -25 40 0 28 5 35 25 41 39 11 55 6 58 -19z m5490 -70 c5 -16 -40 -33
-50 -18 -4 6 -8 17 -8 24 0 17 52 12 58 -6z m-3735 -9 c-7 -2 -19 -2 -25 0 -7
3 -2 5 12 5 14 0 19 -2 13 -5z m-1606 -82 c10 -16 7 -23 -19 -50 -33 -34 -45
-37 -82 -20 -50 23 -43 54 17 76 47 17 71 15 84 -6z m4594 4 c60 -31 59 -92
-1 -127 -42 -24 -37 -84 6 -76 13 2 20 -4 22 -17 3 -26 -8 -42 -33 -47 -16 -2
-21 3 -23 26 -2 17 -11 30 -22 33 -13 4 -26 26 -40 74 -26 84 -24 119 10 136
33 17 45 16 81 -2z m569 -16 c0 -4 -13 -17 -30 -29 -16 -12 -30 -17 -30 -11 0
5 -3 16 -6 24 -3 10 1 17 13 20 26 6 53 4 53 -4z m-420 -35 c18 -20 23 -112 9
-147 l-11 -27 -19 21 c-23 27 -23 24 -2 44 10 11 12 19 6 23 -22 15 -33 50
-23 76 11 30 22 33 40 10z m-3522 -13 c3 -8 -1 -12 -9 -9 -7 2 -15 10 -17 17
-3 8 1 12 9 9 7 -2 15 -10 17 -17z m-1413 -41 c12 -23 13 -34 3 -55 -6 -14
-15 -26 -20 -26 -26 -5 -31 -2 -35 21 -2 14 -10 30 -18 36 -20 15 -19 31 3 43
30 18 51 12 67 -19z m749 -6 c21 -8 20 -20 -5 -55 -32 -45 -52 -52 -83 -28
-21 17 -24 24 -15 35 6 8 19 14 28 14 10 0 26 9 37 19 23 24 19 22 38 15z
m3816 -24 c0 -5 -4 -10 -10 -10 -5 0 -10 5 -10 10 0 6 5 10 10 10 6 0 10 -4
10 -10z m-101 -81 c-12 -23 -59 -26 -59 -5 0 23 41 48 57 35 9 -8 10 -16 2
-30z m105 15 c5 -14 4 -15 -9 -4 -17 14 -19 20 -6 20 5 0 12 -7 15 -16z m132
-81 c5 -28 3 -33 -17 -38 -13 -3 -36 -2 -51 2 -25 7 -26 10 -15 33 14 27 57
54 69 42 4 -4 10 -22 14 -39z m532 30 c-2 -13 19 -58 33 -69 8 -6 35 -17 61
-24 55 -15 83 -48 73 -87 -10 -41 -76 -105 -102 -100 -13 2 -23 0 -23 -4 0 -5
-7 -9 -15 -9 -9 0 -15 -9 -15 -25 0 -40 -30 -27 -63 28 -11 16 -26 27 -40 27
-12 0 -17 4 -11 8 6 4 12 32 13 62 2 31 12 73 25 100 13 25 26 57 30 73 3 15
13 27 21 27 8 0 14 -3 13 -7z m-1093 -75 c15 -29 17 -42 10 -65 -9 -23 -17
-29 -47 -31 -70 -6 -93 24 -66 85 28 62 73 67 103 11z m-4455 -83 c0 -8 -4
-15 -10 -15 -5 0 -10 7 -10 15 0 8 5 15 10 15 6 0 10 -7 10 -15z m4870 -10 c0
-17 -31 -28 -54 -19 -15 6 -14 8 5 25 22 19 49 16 49 -6z m91 -32 c-8 -15 -10
-15 -11 -2 0 17 10 32 18 25 2 -3 -1 -13 -7 -23z m361 0 c41 -35 73 -53 93
-53 37 0 5 -37 -35 -40 -47 -4 -60 0 -60 19 0 24 -23 43 -55 45 -14 0 -25 2
-25 3 0 1 4 13 10 27 12 33 31 33 72 -1z m-3507 -22 c3 -5 1 -12 -5 -16 -13
-8 -50 3 -50 16 0 12 47 12 55 0z m-1055 -57 c0 -4 -5 -24 -11 -45 -10 -33 -9
-43 9 -78 13 -24 20 -56 19 -81 -1 -27 4 -44 13 -50 11 -7 12 -12 4 -20 -6 -6
-9 -22 -6 -35 4 -24 5 -24 28 -7 13 9 24 25 24 35 0 10 9 27 20 39 15 16 22
19 33 9 19 -15 8 -71 -27 -134 -14 -26 -26 -60 -26 -76 0 -37 -22 -66 -45 -57
-23 9 -55 -20 -55 -49 0 -25 17 -35 60 -35 67 0 31 -99 -49 -136 -25 -12 -45
-30 -53 -49 -7 -16 -52 -69 -100 -118 -48 -49 -88 -95 -88 -102 0 -6 11 -32
24 -57 13 -24 24 -57 24 -72 0 -16 6 -32 13 -37 10 -6 8 -12 -11 -29 -13 -11
-28 -19 -34 -17 -5 2 -34 39 -64 82 -43 63 -52 83 -47 104 4 14 12 29 18 33 9
6 9 12 0 28 -7 11 -13 26 -13 34 0 18 -43 46 -71 46 -12 0 -23 -8 -26 -20 -3
-11 -12 -20 -19 -20 -8 0 -14 -7 -14 -15 0 -16 -21 -20 -34 -7 -4 4 -11 7 -14
8 -4 0 -24 9 -46 18 -35 16 -38 20 -32 47 4 21 -2 44 -19 78 -19 39 -30 50
-56 55 -67 13 -84 8 -131 -43 -38 -40 -52 -49 -80 -49 -55 0 -61 8 -46 61 9
36 18 48 40 57 15 5 42 15 59 21 21 8 35 24 46 50 14 37 18 39 58 39 54 0 104
-27 111 -60 13 -57 26 -77 59 -89 19 -7 35 -17 35 -22 0 -5 15 -9 34 -9 29 0
34 3 31 20 -5 26 30 50 73 50 18 0 31 -4 28 -9 -5 -7 17 -6 71 5 19 4 21 7 12
36 -15 53 -11 96 9 100 29 7 56 -12 75 -53 18 -37 46 -53 47 -26 1 6 1 41 2
77 1 36 6 74 12 85 5 11 11 26 12 33 4 20 14 28 14 11 1 -18 29 31 30 50 0 8
7 22 15 31 14 16 14 22 1 61 -8 23 -13 46 -11 50 7 10 -16 69 -26 69 -5 0 -9
6 -9 14 0 8 -5 16 -10 18 -6 2 -11 21 -13 43 -2 38 -1 40 39 53 25 8 46 23 54
38 12 22 30 33 30 18z m3680 -4 c0 -5 9 -10 20 -10 11 0 20 -3 21 -7 0 -5 2
-16 4 -25 4 -20 -2 -21 -57 -12 -21 4 -35 10 -32 15 3 5 0 9 -7 9 -7 0 -5 8 6
20 19 21 45 27 45 10z m640 -35 c0 -8 -9 -15 -20 -15 -22 0 -27 15 -7 23 21 9
27 7 27 -8z m-963 -31 c-4 -30 -37 -56 -53 -43 -12 10 -8 45 8 65 16 21 49 4
45 -22z m1545 -93 c15 -18 15 -21 -3 -37 -24 -21 -52 -10 -57 24 -3 18 3 23
38 31 3 0 13 -8 22 -18z m-243 -17 c42 -37 16 -84 -47 -84 -22 0 -47 3 -56 6
-19 7 -21 43 -4 80 11 23 17 25 49 21 20 -3 46 -13 58 -23z m-4885 -195 c32 4
36 -1 36 -44 0 -41 -2 -45 -25 -45 -20 0 -25 5 -26 28 0 15 -2 40 -4 57 -3 18
-1 25 4 17 5 -8 11 -13 15 -13z m4801 -111 c1 -2 6 -13 9 -25 6 -17 3 -23 -8
-23 -9 0 -16 3 -16 8 0 4 -13 13 -30 20 -42 19 -38 36 6 29 20 -3 38 -7 39 -9z
m-4190 -57 c-4 -20 -11 -40 -16 -45 -5 -6 -9 -18 -9 -28 0 -9 -6 -21 -14 -25
-15 -9 -56 -94 -56 -117 0 -8 -20 -39 -43 -69 -38 -46 -45 -62 -51 -117 -12
-104 -14 -124 -15 -148 -1 -12 -4 -21 -8 -21 -23 4 -43 -2 -38 -11 3 -5 1 -10
-5 -10 -6 0 -10 -12 -8 -27 2 -22 8 -28 25 -27 12 1 24 -5 27 -12 3 -8 1 -14
-4 -14 -6 0 -10 -19 -10 -42 0 -27 -7 -49 -19 -62 -11 -12 -23 -37 -28 -56 -8
-31 -13 -35 -44 -35 -31 0 -34 -3 -35 -30 -1 -49 -15 -88 -41 -115 -60 -60
-74 -142 -36 -196 20 -28 22 -40 18 -133 -4 -98 -6 -104 -32 -127 -16 -13 -31
-24 -35 -24 -12 0 -10 -58 2 -65 6 -3 10 -14 10 -23 0 -15 -2 -15 -10 -2 -8
12 -10 10 -11 -10 0 -14 -2 -33 -4 -42 -2 -10 1 -18 6 -18 6 0 7 -4 4 -10 -3
-5 0 -10 7 -11 7 -1 -3 -5 -22 -10 -68 -17 -136 -1 -214 52 -39 26 -77 57 -84
69 -7 11 -27 29 -44 40 l-31 19 26 6 c15 4 27 11 27 16 0 5 3 8 8 6 4 -1 9 3
11 8 7 19 36 34 63 35 20 0 30 8 40 30 7 17 17 30 21 30 5 0 6 4 3 9 -8 13 15
20 39 11 15 -5 23 -1 32 17 10 20 7 32 -25 93 -20 38 -45 72 -54 76 -10 3 -37
38 -60 77 l-42 72 -1 130 c-1 90 3 138 12 157 7 15 12 33 11 40 -2 6 5 14 14
16 16 3 17 -3 13 -50 -2 -31 2 -75 10 -105 9 -28 14 -72 14 -97 -2 -39 3 -52
36 -91 20 -25 40 -44 43 -40 3 3 1 10 -5 16 -15 15 -1 50 37 99 21 26 30 49
30 74 0 22 5 36 13 37 42 3 60 7 65 16 4 5 19 13 35 17 15 3 27 11 27 16 0 20
62 49 92 43 18 -3 28 -1 28 6 0 7 9 21 20 33 31 34 26 57 -10 53 -24 -3 -30 0
-30 15 0 11 -5 20 -10 20 -14 0 0 53 17 63 7 4 13 15 13 22 0 8 5 15 10 15 6
0 10 9 10 20 0 11 5 21 10 21 6 1 16 2 23 3 8 1 13 22 14 64 1 34 2 71 2 83 1
11 5 18 10 15 5 -4 8 2 7 11 -2 10 0 30 5 45 4 16 3 30 -2 33 -18 11 -9 25 16
25 14 0 25 5 25 11 0 21 26 36 55 32 28 -3 29 -2 11 12 -11 8 -26 15 -33 15
-20 0 -15 27 8 43 17 12 19 21 14 51 -6 29 -4 37 11 42 11 4 27 14 36 22 10 8
24 12 33 9 8 -4 15 -1 15 5 0 7 6 6 16 -3 11 -9 14 -22 9 -48z m4513 -38 c-10
-2 -18 -10 -18 -16 0 -7 -9 -18 -20 -25 -11 -7 -20 -21 -20 -32 0 -20 -25 -38
-37 -27 -13 14 -4 56 18 79 17 18 34 26 59 26 19 0 27 -2 18 -5z m220 -76 c2
-11 -2 -14 -17 -10 -28 7 -34 30 -8 28 12 -1 23 -9 25 -18z m-2567 -96 c-7
-12 -22 -21 -36 -21 -13 0 -29 -2 -37 -3 -7 -2 -10 -2 -7 0 4 2 5 13 2 23 -4
15 2 21 23 25 16 4 34 8 39 10 19 5 27 -13 16 -34z m145 16 c5 -4 2 -12 -6
-17 -8 -6 -10 -10 -5 -10 6 -1 -3 -7 -20 -14 -42 -18 -65 -10 -65 23 0 25 3
26 44 26 24 0 48 -4 52 -8z m-3641 -147 c4 -17 22 -45 41 -63 23 -21 35 -43
37 -66 2 -19 15 -45 28 -59 60 -62 -31 -104 -92 -43 -24 25 -28 36 -24 62 3
18 8 36 11 40 2 4 -1 19 -8 33 -10 24 -16 26 -65 25 -59 -2 -72 4 -57 29 15
22 104 83 114 77 5 -3 11 -19 15 -35z m-190 -29 c3 -5 -6 -22 -20 -37 l-25
-26 -10 26 c-13 36 -14 34 18 39 15 2 28 5 29 6 1 0 4 -3 8 -8z m379 -36 c9
-24 -3 -43 -25 -38 -22 6 -25 23 -7 41 16 16 25 15 32 -3z m721 6 c10 -17 -12
-21 -25 -6 -10 12 -10 15 3 15 9 0 18 -4 22 -9z m375 -41 c0 -5 -4 -10 -10
-10 -5 0 -10 5 -10 10 0 6 5 10 10 10 6 0 10 -4 10 -10z m4417 -66 c-3 -3 -12
-4 -19 -1 -8 3 -5 6 6 6 11 1 17 -2 13 -5z m-6126 -37 c-13 -13 -26 -3 -16 12
3 6 11 8 17 5 6 -4 6 -10 -1 -17z m3354 -30 c4 -23 2 -54 -4 -69 -9 -25 -16
-28 -56 -28 -48 0 -46 -3 -49 65 -2 38 65 92 96 78 4 -2 10 -22 13 -46z
m-2360 -8 c11 -33 14 -54 8 -60 -13 -13 -43 48 -43 85 0 42 17 30 35 -25z
m-787 -15 c6 -10 24 -16 50 -17 l42 -2 -29 -27 c-17 -16 -46 -30 -70 -34 l-41
-7 1 44 c1 24 4 47 6 52 7 13 32 8 41 -9z m1088 -69 c-3 -8 -11 -15 -18 -14
-10 0 -10 2 0 6 6 2 12 14 13 26 0 12 3 16 6 9 3 -7 2 -19 -1 -27z m4834 16
c0 -11 -8 -27 -17 -36 -16 -16 -17 -16 -30 1 -23 32 -16 54 17 54 23 0 30 -5
30 -19z m-6170 -56 c0 -16 -6 -25 -15 -25 -15 0 -21 31 -8 43 13 14 23 6 23
-18z m850 -91 c0 -7 -46 -80 -59 -94 -23 -23 -58 -38 -71 -30 -7 4 -9 13 -5
20 6 9 9 9 16 -1 7 -11 9 -10 9 5 0 10 10 29 23 41 33 34 47 53 47 64 0 5 9 7
20 4 11 -3 20 -7 20 -9z m-950 -99 c0 -8 -4 -15 -10 -15 -5 0 -7 7 -4 15 4 8
8 15 10 15 2 0 4 -7 4 -15z m2975 -216 c0 -7 -8 -15 -17 -17 -12 -2 -15 2 -11
18 6 23 28 22 28 -1z m152 -34 c25 -7 39 -35 18 -35 -8 0 -15 4 -15 9 0 5 -13
11 -30 15 -16 3 -30 10 -30 16 0 6 8 9 18 6 9 -2 27 -7 39 -11z m77 -71 c9 -3
16 -12 16 -19 0 -17 -25 -26 -38 -13 -6 6 -8 17 -5 24 6 16 6 16 27 8z m386
-13 c0 -5 -9 -11 -20 -14 -22 -6 -28 8 -7 16 19 8 27 8 27 -2z m-542 -71 c16
-16 36 -30 44 -30 16 0 45 -29 73 -73 17 -26 17 -28 0 -47 -17 -19 -17 -43 0
-110 4 -18 0 -31 -14 -46 -11 -12 -17 -24 -14 -28 11 -10 -19 -36 -43 -36 -12
0 -29 8 -36 18 -7 11 -23 24 -34 30 -18 10 -27 8 -50 -11 -44 -33 -51 -41 -58
-65 -10 -30 -46 -53 -72 -46 -21 5 -54 61 -54 89 0 21 38 62 70 75 16 7 31 18
34 25 6 18 -23 28 -40 14 -20 -17 -63 -2 -76 26 -8 19 -8 35 0 62 7 21 13 49
14 63 3 22 10 26 58 35 88 16 160 46 160 67 0 24 5 23 38 -12z m-741 -42 c-3
-8 -6 -5 -6 6 -1 11 2 17 5 13 3 -3 4 -12 1 -19z m202 -29 c30 17 42 0 28 -40
-6 -18 -15 -36 -18 -39 -3 -3 -8 -11 -10 -19 -6 -16 -48 19 -68 57 -10 18 -9
22 4 22 9 0 15 9 15 21 0 19 1 19 16 5 11 -11 21 -13 33 -7z m1199 -34 c-11
-11 -58 -15 -58 -6 0 5 12 11 28 13 29 4 39 1 30 -7z m3235 -19 c22 -17 24
-117 3 -135 -27 -22 -40 19 -37 117 1 35 7 38 34 18z m-3325 -98 c-6 -18 -28
-21 -28 -4 0 9 7 16 16 16 9 0 14 -5 12 -12z m-2702 -146 c18 -11 37 -93 25
-105 -5 -5 -36 -12 -69 -14 -53 -4 -59 -3 -57 14 3 30 17 57 47 86 30 29 36
31 54 19z m2399 -22 c0 -7 -6 -15 -12 -17 -8 -3 -13 4 -13 17 0 13 5 20 13 18
6 -3 12 -11 12 -18z m-1492 -78 c16 -7 31 -12 35 -12 4 -1 22 -21 40 -46 18
-25 50 -52 70 -62 39 -17 124 -101 116 -113 -2 -5 -6 -25 -9 -46 -12 -120 -20
-159 -31 -170 -13 -14 -54 -32 -66 -29 -4 0 -22 -16 -41 -37 -40 -45 -54 -47
-151 -21 -52 13 -71 15 -74 6 -2 -7 -13 -12 -25 -12 -12 0 -31 -7 -41 -15 -15
-12 -17 -17 -7 -29 7 -8 10 -20 6 -26 -3 -5 0 -10 7 -10 11 0 11 -2 0 -9 -7
-4 -42 -6 -78 -4 -59 4 -68 2 -111 -26 -55 -37 -55 -37 -78 -11 -10 11 -27 20
-37 20 -27 0 -58 18 -58 34 0 7 11 22 24 33 17 15 25 36 31 78 8 69 -7 90 -72
101 -34 5 -44 3 -59 -15 -20 -23 -66 -28 -82 -8 -7 8 -8 26 -3 49 7 32 5 40
-14 58 -24 23 -24 41 1 70 15 18 140 18 173 1 28 -15 56 -14 71 4 7 8 25 21
41 29 28 14 31 13 81 -25 59 -44 55 -43 86 -26 22 13 22 13 4 33 -39 42 -43
58 -21 100 26 51 73 94 102 94 13 0 38 13 57 30 37 31 60 33 113 12z m5810
-65 c20 -15 44 -27 53 -27 10 0 31 -12 46 -27 22 -21 28 -36 28 -67 0 -27 -3
-36 -9 -27 -6 9 -11 10 -15 2 -7 -11 14 -51 27 -51 4 0 5 -4 2 -10 -3 -5 -9
-31 -12 -57 -3 -27 -9 -49 -12 -51 -4 -1 -4 -26 0 -55 6 -49 6 -61 -3 -96 -2
-11 10 -17 44 -22 54 -8 68 -15 68 -33 0 -8 7 -19 15 -26 17 -14 21 -35 5 -25
-5 3 -10 -1 -10 -9 0 -20 -13 -20 -50 -1 -17 9 -30 13 -30 10 0 -20 -30 28
-32 50 -2 15 -11 31 -21 37 -17 9 -17 7 -7 -14 10 -19 10 -21 -1 -10 -18 16
-32 15 -26 -2 6 -16 -12 -26 -47 -26 -12 0 -30 -6 -41 -14 -11 -7 -31 -16 -45
-19 -30 -8 -130 -102 -118 -112 13 -11 67 -31 82 -31 21 1 52 -27 154 -135
l62 -66 -25 -27 c-14 -15 -25 -34 -25 -42 0 -7 -5 -14 -10 -14 -6 0 -10 -6 -9
-12 3 -28 -2 -38 -21 -38 -22 0 -44 -32 -49 -70 0 -5 -7 -10 -15 -10 -8 0 -27
-5 -43 -12 -44 -18 -154 -49 -196 -55 -35 -5 -43 -1 -95 46 -94 85 -102 93
-102 114 0 10 -11 32 -25 49 -16 19 -25 43 -26 66 -1 20 -2 64 -3 97 0 33 -5
63 -9 66 -5 3 -9 41 -10 85 -1 43 -5 81 -8 84 -4 3 -3 14 1 25 7 17 11 13 29
-28 11 -27 21 -61 21 -77 0 -16 7 -35 15 -44 8 -8 15 -22 15 -30 0 -9 8 -16
19 -16 13 0 21 10 26 33 4 17 9 26 12 19 9 -24 40 31 46 83 3 28 11 70 17 95
29 122 36 179 23 184 -7 3 -13 12 -13 20 0 10 -6 13 -16 9 -14 -5 -14 -3 -3
16 8 11 18 21 24 21 6 0 18 8 27 18 37 38 45 42 60 24 21 -25 38 -69 38 -97 0
-14 5 -25 10 -25 6 0 10 -11 10 -25 0 -14 5 -25 11 -25 6 0 8 8 5 18 -3 9 -1
35 5 57 6 22 13 50 16 63 4 16 -2 31 -20 50 -22 24 -45 107 -35 129 5 12 97 6
113 -7 8 -7 15 -23 15 -36 0 -12 5 -26 10 -29 7 -4 10 7 8 31 -1 23 3 39 10
42 18 6 15 19 -10 44 -24 24 -32 48 -17 48 5 0 9 7 9 15 0 23 41 14 83 -18z
m-6661 -28 c42 -19 113 -178 81 -179 -5 0 -23 -19 -42 -41 -30 -36 -34 -47
-32 -94 1 -40 -2 -54 -15 -59 -21 -8 -64 14 -78 39 -41 76 -65 107 -94 121
-32 15 -33 17 -27 62 9 68 9 68 59 83 25 7 46 17 46 21 0 4 10 19 22 33 23 27
44 31 80 14z m4597 -20 c15 -20 28 -28 39 -24 14 5 14 4 -1 -12 -18 -20 -17
-59 1 -57 7 1 18 2 25 3 8 0 24 10 37 21 26 23 40 18 40 -14 0 -27 -65 -92
-101 -101 -15 -4 -36 -18 -48 -31 -15 -17 -31 -24 -56 -24 -83 0 -133 62 -120
148 7 50 50 102 84 102 11 0 23 5 26 10 13 21 51 10 74 -21z m399 -22 c3 -14
-3 -17 -27 -15 -23 2 -31 7 -31 21 0 25 53 20 58 -6z m95 -134 c-7 -2 -19 -2
-25 0 -7 3 -2 5 12 5 14 0 19 -2 13 -5z m-622 -158 c33 -23 79 -82 79 -102 0
-7 -10 -17 -21 -24 -19 -9 -25 -7 -43 15 -11 15 -31 28 -43 29 -18 1 -23 7
-23 30 0 29 -19 57 -39 57 -12 0 -14 20 -5 44 5 14 10 13 36 -7 17 -12 43 -31
59 -42z m209 45 c0 -5 -4 -10 -10 -10 -5 0 -10 5 -10 10 0 6 5 10 10 10 6 0
10 -4 10 -10z m-2386 -103 c3 4 6 1 6 -5 0 -6 -16 -10 -38 -9 -29 1 -36 4 -28
13 7 7 19 9 32 3 12 -4 25 -5 28 -2z m-2053 -39 c10 -13 18 -35 19 -50 0 -23
-4 -28 -25 -28 -33 0 -75 42 -75 75 0 21 4 25 31 25 20 0 38 -8 50 -22z m4659
-8 c0 -5 -5 -10 -11 -10 -5 0 -7 5 -4 10 3 6 8 10 11 10 2 0 4 -4 4 -10z m196
-48 l-11 -36 -9 32 c-6 23 -5 36 4 47 20 24 29 -1 16 -43z m-3566 -64 c43 -44
47 -72 15 -108 -16 -19 -10 -73 12 -107 10 -15 13 -24 6 -20 -6 4 -14 3 -18
-3 -11 -18 -64 28 -74 64 -11 43 -1 216 13 216 3 0 23 -19 46 -42z m4338 -41
c15 -18 -12 -57 -39 -57 -14 0 -19 7 -19 28 0 16 3 32 7 35 11 11 40 8 51 -6z
m-4050 -13 c30 -21 28 -34 -9 -65 -39 -32 -35 -57 14 -109 18 -19 36 -43 40
-52 3 -10 12 -15 20 -12 8 3 21 -6 31 -20 11 -18 13 -26 4 -26 -20 0 26 -29
47 -30 17 0 17 -2 5 -10 -11 -7 -7 -8 15 -4 34 6 88 -29 121 -78 19 -28 86
-63 92 -48 2 5 9 7 15 4 7 -2 28 -5 47 -7 23 -2 35 -8 35 -17 0 -15 -53 -71
-94 -100 -11 -8 -21 -22 -21 -30 0 -9 -5 -21 -12 -28 -6 -6 -12 -28 -14 -49
-1 -21 -5 -54 -8 -74 -5 -25 -1 -50 13 -82 11 -26 16 -47 11 -47 -6 0 -10 -9
-10 -20 0 -30 -43 -52 -100 -52 -44 1 -52 -2 -59 -21 -5 -12 -7 -25 -4 -29 2
-5 -1 -8 -6 -8 -6 0 -11 -8 -11 -19 0 -25 -39 -22 -54 4 -16 28 -55 65 -70 65
-19 0 -36 -22 -36 -46 0 -11 -5 -34 -10 -51 -11 -30 -11 -30 -84 -29 -41 1
-73 2 -71 4 2 2 -2 18 -10 35 -7 18 -10 38 -8 45 3 8 -10 12 -46 12 -40 0 -51
-3 -51 -16 0 -10 -7 -14 -22 -12 -29 4 -33 23 -9 47 18 18 18 20 3 35 -10 8
-29 17 -44 20 -44 8 -48 14 -48 76 0 37 -5 64 -14 73 -33 32 -65 131 -46 142
5 3 10 26 10 50 0 34 -6 50 -25 69 -26 26 -33 68 -16 95 8 12 15 11 48 -4 21
-11 50 -21 64 -22 23 -3 26 -1 22 21 -3 13 -18 37 -34 52 -50 48 -31 75 31 42
61 -32 92 -25 144 34 44 51 46 55 40 100 -6 45 -5 49 30 84 20 20 35 43 32 49
-5 15 38 55 59 55 8 0 15 5 15 10 0 14 12 12 38 -6z m-2514 -97 c15 -24 -3
-35 -20 -13 -8 11 -14 24 -14 29 0 13 22 3 34 -16z m-185 -46 c4 -5 23 -17 43
-25 20 -9 63 -41 96 -73 55 -53 60 -62 67 -113 5 -46 3 -63 -17 -102 -14 -30
-31 -49 -46 -53 -12 -3 -32 -17 -44 -30 -28 -32 -40 -31 -56 4 -7 16 -30 40
-51 54 -43 29 -58 67 -42 109 5 14 10 57 10 95 0 70 0 70 -34 86 -36 17 -39
24 -29 51 4 11 17 14 51 12 25 -2 48 -9 52 -15z m6097 -82 c16 -17 16 -22 4
-29 -8 -6 -19 -10 -24 -10 -5 0 -38 -14 -72 -30 -57 -28 -69 -31 -150 -28
-133 5 -120 31 30 63 39 8 81 23 95 34 35 27 92 27 117 0z m-3839 -33 c0 -11
-5 -13 -19 -5 -10 5 -18 12 -18 14 0 3 8 5 18 5 10 0 19 -7 19 -14z m2563 -70
c0 -18 -14 -34 -26 -29 -21 8 -17 33 6 33 11 0 20 -2 20 -4z m-4466 -32 c9
-35 0 -59 -28 -72 -39 -18 -46 4 -22 63 18 41 41 45 50 9z m7406 -59 c26 -31
-19 -46 -75 -25 -23 9 -25 13 -15 25 16 19 74 19 90 0z m-7232 -54 c25 -43 72
-77 121 -87 23 -5 33 -13 37 -33 4 -14 18 -39 33 -54 22 -24 31 -27 64 -22 45
8 60 -2 89 -58 18 -36 19 -46 8 -101 -18 -92 -60 -186 -105 -234 -22 -23 -49
-61 -61 -83 -20 -38 -21 -39 -37 -21 -9 10 -17 24 -17 30 0 25 -38 10 -62 -24
-22 -30 -25 -41 -17 -67 5 -17 6 -48 3 -69 -4 -22 -3 -38 3 -38 17 0 48 -34
51 -57 2 -13 -1 -23 -6 -23 -16 0 -43 -100 -32 -120 17 -33 11 -40 -34 -40
-27 0 -48 6 -57 16 -7 8 -25 22 -41 30 -19 10 -37 33 -52 68 -20 44 -30 56
-60 66 -20 6 -36 17 -36 24 0 16 -35 49 -58 54 -19 4 -60 10 -81 11 -19 1 -90
76 -102 107 -17 46 -13 100 10 137 24 39 43 47 117 47 94 0 110 43 25 68 -21
7 -41 18 -44 26 -7 17 2 56 13 56 8 0 18 39 27 106 3 30 0 45 -12 58 -29 29
-11 49 38 43 23 -2 50 -8 59 -12 25 -10 34 20 19 61 -10 27 -9 38 3 63 22 42
34 46 61 21 31 -29 50 -21 65 27 13 40 28 63 39 63 4 0 17 -18 29 -39z m7356
-17 c31 -31 15 -94 -25 -94 -26 0 -43 27 -45 73 -3 60 24 68 70 21z m-7621 -8
c-7 -39 -17 -50 -37 -43 -21 8 -21 53 0 65 31 17 43 10 37 -22z m-327 -61 c3
-14 3 -32 0 -41 -10 -25 -36 2 -36 37 0 37 27 39 36 4z m7744 -30 c16 -8 40
-15 54 -15 13 0 39 -12 56 -26 31 -27 33 -38 14 -88 -5 -12 0 -16 19 -16 14 0
38 -5 54 -11 l28 -10 -33 -30 c-25 -22 -39 -28 -55 -23 -12 4 -24 11 -25 16
-2 4 -10 14 -17 22 -8 7 -12 16 -9 19 3 3 -3 3 -15 0 -24 -6 -28 -28 -8 -40
17 -10 31 -43 28 -67 -2 -11 12 -30 34 -48 31 -26 46 -31 107 -35 40 -2 75 -5
78 -5 19 -2 28 4 33 22 3 11 12 20 21 20 9 0 16 5 16 10 0 21 47 10 59 -14 11
-20 11 -29 -2 -53 -18 -33 -38 -134 -32 -163 3 -14 -1 -20 -16 -20 -14 0 -19
7 -19 27 0 14 -7 34 -16 44 -15 16 -17 16 -50 -3 -35 -20 -36 -20 -71 -2 -19
11 -42 29 -50 42 -9 12 -23 22 -33 22 -38 0 -30 -82 9 -95 11 -3 29 -17 39
-30 11 -13 31 -30 46 -36 14 -7 26 -16 26 -20 0 -4 -23 -26 -51 -50 -48 -40
-53 -42 -82 -31 -39 15 -49 8 -42 -31 6 -36 -25 -97 -49 -97 -32 0 -138 -107
-170 -171 -65 -131 -78 -147 -125 -154 -20 -4 -52 -12 -71 -20 -68 -26 -226
-75 -243 -75 -9 0 -31 -17 -49 -37 -18 -21 -63 -69 -99 -106 -60 -61 -69 -67
-95 -61 -38 9 -46 17 -50 50 -2 25 -1 26 37 21 43 -6 59 4 85 54 14 28 14 30
-12 39 -18 7 -30 7 -40 -1 -19 -15 -34 -2 -34 29 0 45 14 58 43 43 22 -12 28
-11 51 5 14 11 26 26 26 34 0 8 5 22 10 30 8 12 14 10 38 -13 27 -26 29 -27
45 -9 20 22 27 206 8 225 -16 16 -14 42 4 57 13 10 19 10 33 -4 10 -9 22 -16
26 -16 4 0 19 -9 34 -20 16 -13 37 -20 60 -18 l35 2 -7 86 -6 86 30 29 c32 31
33 53 3 87 -11 13 -14 29 -9 62 7 43 8 45 32 34 13 -6 24 -15 24 -20 0 -4 13
-8 29 -8 31 0 34 -5 45 -72 7 -40 33 -58 43 -30 3 9 12 24 19 32 6 8 17 34 24
58 6 24 24 57 41 74 16 17 29 35 29 41 0 5 11 20 25 33 18 17 25 34 25 61 0
21 7 46 15 57 12 16 12 20 0 33 -8 7 -19 33 -25 56 -24 96 -32 124 -51 162
-22 47 -23 61 -6 81 15 18 82 12 127 -11z m-1445 -28 c17 -9 36 -17 43 -17 6
0 12 -6 12 -14 0 -8 5 -16 10 -18 6 -2 14 -28 17 -59 5 -49 2 -61 -27 -115
-54 -97 -118 -142 -198 -141 -22 0 -59 -5 -81 -13 l-41 -13 -37 41 c-21 23
-43 42 -48 42 -6 0 -21 20 -35 45 -22 39 -23 48 -12 78 7 18 12 47 12 65 0 43
16 81 37 88 10 3 26 10 35 15 10 5 31 9 47 9 16 0 35 7 42 16 18 22 180 15
224 -9z m-6187 -11 c7 -4 11 -13 9 -19 -2 -7 0 -24 4 -40 4 -15 4 -25 -1 -22
-4 2 -13 -2 -20 -10 -15 -18 -40 -8 -40 16 0 10 -4 19 -9 19 -10 0 -3 39 11
57 10 12 26 12 46 -1z m7422 -31 c0 -31 -48 -63 -90 -61 -24 1 -40 -2 -40 -9
0 -19 -57 -46 -87 -41 -15 3 -29 10 -31 16 -2 5 -12 10 -23 10 -27 0 -23 14 9
30 15 8 36 22 47 31 14 12 41 19 88 21 38 1 74 6 80 10 20 13 47 9 47 -7z
m961 -156 c12 -12 18 -30 17 -49 -2 -26 -6 -29 -33 -27 -38 3 -46 -28 -14 -62
l21 -23 -28 -71 c-35 -91 -40 -97 -76 -97 -40 0 -68 17 -68 40 0 11 -4 20 -9
20 -5 0 -11 11 -14 25 -3 18 2 30 15 39 10 7 21 29 23 50 3 20 19 64 37 99 17
34 33 72 35 85 2 12 11 32 21 42 16 20 17 19 35 -15 10 -20 27 -45 38 -56z
m-4800 20 c11 -6 41 -12 66 -15 44 -4 83 -29 83 -52 0 -6 9 -12 20 -15 23 -6
60 2 60 13 0 25 107 13 130 -14 5 -7 12 -41 16 -75 6 -60 5 -65 -23 -94 -46
-49 -103 -133 -103 -150 0 -39 -43 -128 -71 -147 -16 -12 -29 -30 -29 -40 0
-12 -10 -21 -31 -25 -26 -6 -36 -2 -58 21 -15 16 -42 37 -59 46 -21 11 -33 25
-33 40 -1 13 -3 32 -4 43 -1 11 -2 33 -3 50 l-2 29 -16 -22 c-9 -13 -17 -37
-19 -55 -4 -49 -26 -87 -53 -94 -15 -3 -45 3 -76 16 -28 11 -61 21 -73 21 -28
0 -39 18 -16 27 32 12 83 70 83 95 0 29 46 128 59 128 17 0 38 51 50 124 14
80 47 156 68 156 8 0 23 -5 34 -11z m-488 -69 c-8 -29 -21 -25 -15 5 2 14 8
23 12 20 5 -3 6 -14 3 -25z m110 -11 c12 -7 26 -18 30 -25 4 -8 14 -14 21 -14
18 0 56 -34 56 -50 0 -19 -89 -7 -146 20 -53 26 -64 36 -64 63 0 13 9 17 41
17 22 0 50 -5 62 -11z m3922 -116 c-5 -53 -4 -50 -30 -55 -17 -2 -20 2 -17 30
3 37 30 85 43 76 5 -3 7 -26 4 -51z m-399 -194 c21 -10 44 -19 51 -19 7 0 20
-15 29 -32 9 -18 27 -46 40 -61 32 -39 30 -54 -16 -143 -22 -42 -40 -87 -40
-100 0 -29 -7 -30 -36 -4 -14 14 -37 22 -65 23 -49 2 -54 -6 -32 -60 7 -18 13
-47 13 -65 0 -21 9 -41 27 -60 23 -25 27 -36 26 -92 -1 -69 5 -76 65 -76 17 0
20 -3 12 -12 -21 -24 -55 -83 -70 -123 -12 -31 -25 -45 -62 -62 -31 -15 -49
-31 -55 -50 -6 -15 -38 -61 -72 -101 -33 -41 -61 -80 -61 -87 0 -25 -60 -65
-96 -65 -31 0 -45 -10 -118 -85 -45 -47 -86 -85 -92 -85 -5 0 -24 13 -42 28
-48 40 -52 82 -13 163 17 36 31 82 31 101 0 20 7 55 15 78 8 23 15 60 15 82 0
52 15 77 56 94 46 19 69 70 60 134 -14 101 -16 94 38 121 27 13 64 40 82 58
l31 35 29 -18 c27 -19 28 -18 46 4 28 35 22 49 -22 56 l-41 7 3 51 c2 42 7 53
26 61 21 10 28 25 16 38 -4 3 -23 -2 -43 -12 -20 -10 -48 -21 -63 -25 -30 -7
-98 -62 -98 -79 0 -6 7 -19 17 -29 15 -17 15 -19 -2 -38 -10 -11 -29 -20 -42
-20 -18 0 -23 5 -23 27 0 15 10 37 22 50 l21 23 -21 0 c-12 0 -22 4 -22 9 0 5
-9 13 -20 16 -16 5 -20 15 -20 53 0 51 6 65 32 75 11 4 24 -2 37 -18 26 -34
71 -33 124 3 23 15 48 28 55 28 50 3 52 5 52 29 0 14 -9 34 -19 44 -44 44 -51
77 -22 109 20 24 41 28 58 11 9 -9 23 -8 57 2 25 7 46 16 46 20 0 14 61 6 96
-12z m-2641 -97 c-4 -15 -7 -40 -6 -57 0 -16 0 -50 0 -75 0 -25 10 -84 22
-132 18 -71 20 -90 10 -102 -9 -11 -18 -13 -31 -6 -9 5 -19 7 -22 5 -2 -2 -2
11 0 30 4 31 2 35 -19 35 -18 0 -21 -2 -10 -9 10 -7 4 -9 -20 -8 -19 1 -37 6
-40 10 -4 5 -26 -1 -50 -13 -54 -26 -124 -37 -133 -21 -4 6 -1 11 6 11 7 0 19
4 27 9 19 12 -4 51 -30 51 -11 0 -27 7 -35 15 -9 8 -11 15 -5 15 5 0 13 10 17
23 3 12 15 34 25 49 11 14 19 35 19 46 0 14 14 26 45 41 49 23 75 27 75 11 0
-5 9 -10 20 -10 11 0 20 -6 20 -12 1 -23 39 56 40 82 1 44 29 65 63 48 15 -8
17 -16 12 -36z m-3937 -174 c-6 -94 2 -132 29 -142 21 -8 31 0 47 39 20 47 45
58 93 41 32 -11 38 -17 38 -42 0 -22 -7 -32 -30 -43 -16 -7 -40 -23 -52 -33
-12 -11 -42 -23 -66 -25 -40 -5 -48 -2 -82 29 -35 31 -38 39 -37 85 1 28 6 63
12 77 5 15 10 42 10 60 0 36 6 46 28 46 12 0 14 -15 10 -92z m5794 73 c17 -7
23 -16 22 -39 -2 -58 -45 -79 -92 -46 l-22 15 20 40 c21 40 32 45 72 30z m68
-132 c0 -4 -11 -9 -24 -11 -17 -3 -23 -1 -19 8 5 13 43 16 43 3z m85 -69 c7
-11 -38 -60 -55 -60 -14 0 -13 43 2 58 15 15 45 16 53 2z m-5441 -80 c3 -22
10 -40 14 -40 4 0 14 -15 22 -32 7 -18 16 -37 18 -42 3 -5 0 -6 -6 -2 -8 5
-76 117 -90 149 -2 4 5 7 16 7 15 0 21 -9 26 -40z m6191 -80 c3 -5 1 -10 -4
-10 -6 0 -11 5 -11 10 0 6 2 10 4 10 3 0 8 -4 11 -10z m-6105 -85 c0 -14 -2
-25 -4 -25 -2 0 -6 11 -8 25 -3 14 -1 25 3 25 5 0 9 -11 9 -25z m4390 -181 c0
-8 -4 -12 -10 -9 -5 3 -10 10 -10 16 0 5 5 9 10 9 6 0 10 -7 10 -16z m-1959
-67 c5 -21 17 -41 25 -44 21 -8 17 -33 -8 -55 -22 -19 -22 -19 -50 11 -51 54
-87 50 -88 -9 0 -38 -18 -50 -71 -50 -40 0 -51 4 -69 28 l-22 27 45 5 c25 3
54 13 64 22 10 8 24 13 32 10 8 -2 11 0 7 6 -3 6 -2 13 3 16 5 3 7 24 4 46 -5
35 -3 41 18 48 15 6 35 4 61 -7 31 -13 40 -24 49 -54z m2144 7 c20 -20 19 -21
-33 -32 -37 -9 -44 -8 -53 9 -5 11 -7 24 -4 29 10 16 72 11 90 -6z m-782 -79
c4 -8 2 -17 -3 -20 -13 -8 -40 6 -40 21 0 19 36 18 43 -1z m-3363 -345 c0 -5
-2 -10 -4 -10 -3 0 -8 5 -11 10 -3 6 -1 10 4 10 6 0 11 -4 11 -10z m118 -35
c15 -33 6 -60 -15 -43 -18 14 -33 50 -26 61 9 15 30 6 41 -18z m4838 -94 c-9
-17 -20 -31 -25 -31 -5 0 -28 -16 -51 -35 -40 -33 -80 -46 -80 -25 0 5 19 22
43 39 23 16 51 43 62 60 35 53 79 46 51 -8z m-4771 8 c11 -17 0 -20 -21 -4
-17 13 -17 14 -2 15 9 0 20 -5 23 -11z m2381 -162 c63 -2 69 -4 72 -24 2 -13
-1 -23 -6 -23 -5 0 -25 -11 -44 -23 -41 -28 -121 -57 -157 -57 -14 0 -37 9
-51 20 -14 11 -33 20 -42 20 -21 0 -39 32 -28 49 5 10 19 12 45 7 30 -6 42 -3
59 12 21 20 53 31 72 25 5 -2 41 -5 80 -6z"/>
<path d="M5557 11553 c-10 -15 4 -53 19 -53 8 0 22 -9 31 -20 18 -21 33 -26
33 -11 0 17 -77 94 -83 84z"/>
<path d="M5491 11351 c-17 -11 -7 -61 13 -61 7 0 24 9 37 21 23 20 24 21 5 35
-23 16 -35 17 -55 5z"/>
<path d="M5246 11313 c-8 -28 6 -44 31 -37 46 14 45 13 15 39 -37 31 -38 31
-46 -2z"/>
<path d="M4702 10963 c-19 -7 -36 -55 -22 -63 22 -14 82 4 91 27 12 32 -28 53
-69 36z"/>
<path d="M4220 10801 c0 -12 5 -21 10 -21 6 0 10 6 10 14 0 8 -4 18 -10 21 -5
3 -10 -3 -10 -14z"/>
<path d="M5638 10192 c-18 -3 -26 -22 -10 -22 5 0 13 -12 18 -27 12 -34 23
-12 15 27 -4 18 -12 24 -23 22z"/>
<path d="M6876 9821 c-19 -7 -19 -8 2 -13 15 -4 22 -2 22 8 0 8 -1 14 -2 13
-2 0 -12 -4 -22 -8z"/>
<path d="M11382 10163 c0 -55 22 -87 50 -72 13 7 17 17 13 32 -15 52 -28 75
-45 80 -16 4 -18 -2 -18 -40z"/>
<path d="M9962 9643 c12 -13 24 -19 26 -14 7 20 -4 34 -26 36 l-22 2 22 -24z"/>
<path d="M10045 9590 c-3 -5 1 -10 9 -10 8 0 22 -7 30 -16 15 -14 16 -14 16 4
0 27 -42 43 -55 22z"/>
<path d="M10157 9533 c-8 -7 11 -33 24 -33 5 0 9 9 9 20 0 19 -20 27 -33 13z"/>
<path d="M9528 9470 c-17 -11 -51 -70 -44 -77 2 -3 10 -6 18 -7 7 -1 24 -6 37
-10 40 -14 114 -13 166 3 66 19 70 24 50 58 -14 24 -22 28 -50 25 -18 -2 -36
1 -39 7 -9 14 -115 14 -138 1z"/>
<path d="M11485 9437 c-33 -12 -66 -26 -73 -30 -7 -5 -28 -11 -45 -14 -30 -5
-46 -17 -47 -36 0 -4 26 -20 58 -34 31 -14 60 -29 63 -35 4 -6 19 -6 43 0 20
6 34 7 31 2 -5 -9 18 -21 53 -27 33 -6 60 13 77 54 14 32 14 39 1 51 -13 13
-18 13 -38 0 -13 -8 -33 -17 -45 -20 -27 -7 -29 5 -8 55 27 65 23 67 -70 34z"/>
<path d="M10868 9404 c-5 -4 -8 -19 -8 -33 -1 -28 -31 -71 -50 -71 -6 0 -10
-10 -8 -22 4 -32 45 -32 75 0 13 14 23 28 23 31 0 3 18 14 40 25 67 32 62 61
-15 71 -28 4 -53 3 -57 -1z"/>
<path d="M9807 9273 c-4 -3 -7 -17 -7 -29 0 -24 13 -30 69 -33 18 -1 41 -6 51
-11 12 -7 21 -6 28 3 15 18 3 32 -40 46 -21 7 -40 17 -43 22 -7 10 -48 12 -58
2z"/>
<path d="M11208 9227 c-21 -17 -12 -32 38 -62 l38 -23 -35 -21 c-18 -11 -46
-21 -60 -21 -20 0 -28 -6 -31 -24 -3 -14 -1 -31 3 -38 5 -7 9 -23 9 -36 0 -13
4 -20 10 -17 6 3 10 3 11 -2 0 -4 2 -16 4 -25 2 -10 -5 -20 -15 -23 -10 -3
-30 -24 -44 -46 -22 -33 -24 -40 -11 -45 8 -3 12 -11 9 -16 -4 -6 4 -4 17 2
17 10 24 10 27 1 2 -6 10 -11 17 -11 11 0 12 -7 4 -32 -5 -18 -15 -37 -21 -43
-17 -13 -19 -45 -4 -45 6 0 4 -5 -4 -10 -13 -9 -13 -12 2 -24 12 -9 19 -33 23
-78 l6 -65 -28 -6 c-15 -3 -32 -2 -37 3 -5 5 -21 1 -37 -11 -31 -22 -34 -51
-6 -72 14 -10 21 -35 30 -97 0 -3 -3 -13 -7 -22 -7 -16 -11 -16 -49 4 -23 11
-44 24 -47 28 -8 11 -40 20 -40 11 0 -15 -52 -61 -62 -55 -5 4 -32 12 -59 19
-45 12 -49 12 -54 -6 -4 -10 -10 -19 -13 -19 -4 0 -6 -19 -4 -41 3 -24 0 -39
-5 -36 -25 16 -34 -13 -36 -112 l-2 -102 -43 -11 c-43 -11 -78 -48 -53 -56 9
-3 9 -8 -1 -20 -12 -13 -11 -14 8 -2 21 13 74 7 74 -8 -1 -17 -74 -51 -115
-53 -25 -2 -45 -6 -45 -9 0 -4 9 -17 20 -30 11 -13 20 -27 20 -33 0 -5 11 -35
24 -66 14 -31 27 -73 31 -95 4 -27 20 -52 53 -86 26 -27 52 -54 59 -62 7 -7
30 -29 53 -48 22 -19 40 -43 40 -54 0 -10 23 -40 50 -67 41 -39 50 -55 50 -82
0 -53 -19 -96 -51 -113 -32 -16 -31 -12 -34 -114 -3 -95 3 -107 38 -80 24 19
28 20 62 6 31 -13 35 -19 35 -50 0 -41 19 -47 57 -21 20 14 26 14 59 0 111
-46 198 22 102 79 -24 14 -49 34 -56 46 -7 11 -30 28 -53 36 -44 18 -69 55
-69 102 0 35 15 50 59 58 31 6 71 -15 71 -38 0 -5 5 -15 12 -22 10 -10 17 -10
38 1 14 7 32 13 41 13 32 0 77 -22 82 -40 3 -11 19 -22 38 -28 28 -7 35 -14
42 -46 9 -36 10 -36 24 -17 8 12 21 21 29 21 17 0 18 14 2 43 -21 37 -33 81
-30 104 4 30 66 90 99 97 15 3 42 4 58 2 25 -3 31 0 31 15 0 10 -4 19 -8 19
-4 0 -8 4 -8 8 0 13 47 32 79 32 32 0 71 34 49 43 -9 4 -4 13 16 31 17 14 33
23 37 20 8 -5 49 43 83 96 19 31 37 43 35 23 -1 -16 37 -20 59 -6 13 8 30 12
38 9 22 -8 54 34 54 71 0 26 -5 34 -23 38 -37 10 -77 -11 -77 -39 0 -28 -24
-53 -35 -36 -4 6 11 55 33 108 39 95 57 176 46 207 -5 12 -23 15 -81 15 -67 0
-74 2 -63 16 21 25 -10 47 -65 46 -58 0 -71 -12 -80 -67 -6 -42 -8 -45 -36
-45 -18 0 -29 5 -29 14 0 8 -6 17 -12 20 -10 3 -8 8 4 16 25 16 48 40 48 51 0
20 -91 91 -122 96 -10 2 -18 -2 -18 -8 0 -13 -38 -49 -51 -49 -4 0 -15 -7 -23
-16 -9 -8 -16 -11 -16 -5 0 6 -7 11 -15 11 -8 0 -15 5 -15 10 0 16 62 50 90
50 14 0 20 3 14 8 -13 8 -7 72 7 72 5 0 6 43 2 95 -5 76 -3 99 10 118 12 18
13 27 4 36 -7 7 -7 11 0 11 6 0 8 11 5 25 -8 43 56 54 105 18 17 -13 45 -23
60 -23 16 0 38 -8 49 -17 33 -31 54 -28 54 7 0 36 20 40 52 10 14 -13 24 -16
29 -9 3 6 8 2 12 -10 3 -12 0 -21 -5 -21 -6 0 -5 -6 2 -15 7 -8 16 -12 21 -9
5 3 10 -2 10 -10 1 -9 3 -20 4 -26 1 -5 3 -23 4 -40 1 -38 32 -57 55 -34 21
20 20 77 0 131 -16 42 -29 49 -71 44 -22 -3 -14 30 12 51 20 16 23 23 14 34
-16 20 -46 17 -71 -6 -25 -23 -38 -26 -38 -7 0 8 -4 7 -10 -3 -5 -8 -10 -10
-11 -5 0 6 -2 22 -3 38 -1 15 -11 34 -24 43 -16 11 -22 25 -22 52 -1 50 -33
118 -60 127 -15 5 -31 0 -51 -14 -38 -29 -50 -26 -79 15 -66 94 -95 124 -117
120 -14 -2 -20 1 -16 11 8 21 -6 63 -21 63 -9 0 -12 7 -9 20 3 11 11 20 18 20
22 0 22 45 0 96 -21 48 -22 49 -81 59 -58 10 -59 11 -62 45 -2 19 -10 41 -19
48 -22 16 -93 15 -115 -1z m252 -260 c0 -4 -4 -6 -9 -2 -13 7 -88 -33 -105
-56 -7 -11 -11 -36 -9 -58 l4 -38 -57 2 c-55 2 -58 4 -61 30 -3 19 2 32 16 42
21 14 29 53 11 53 -5 0 -10 9 -10 20 0 17 7 20 43 21 56 1 86 5 92 11 8 8 85
-15 85 -25z m70 -129 c0 -5 6 -6 13 -2 9 5 9 4 1 -5 -6 -6 -18 -9 -27 -5 -21
8 -22 21 -2 21 8 0 15 -4 15 -9z m18 -1181 c21 -14 6 -22 -44 -22 -27 0 -49 5
-51 12 -6 18 70 26 95 10z m-532 -221 c15 -12 17 -18 8 -33 -16 -25 -37 -27
-64 -5 -21 17 -21 19 -5 35 20 21 35 21 61 3z"/>
<path d="M11300 8830 c0 -5 5 -10 11 -10 5 0 7 5 4 10 -3 6 -8 10 -11 10 -2 0
-4 -4 -4 -10z"/>
<path d="M10091 9204 c0 -11 3 -14 6 -6 3 7 2 16 -1 19 -3 4 -6 -2 -5 -13z"/>
<path d="M11702 9162 c-22 -20 -30 -62 -12 -62 6 0 10 4 10 9 0 5 10 11 23 13
16 2 22 10 22 27 0 32 -16 36 -43 13z"/>
<path d="M8140 9016 c0 -11 3 -16 6 -13 4 3 15 2 24 -3 13 -7 21 -5 30 5 10
12 9 15 -4 15 -9 0 -16 4 -16 9 0 6 -9 9 -20 8 -13 -1 -20 -8 -20 -21z"/>
<path d="M11688 8943 c-47 -4 -75 -23 -63 -43 8 -13 61 -35 106 -45 42 -9 69
-32 69 -59 0 -12 6 -28 13 -37 11 -15 16 -15 49 -2 l37 15 -19 36 c-11 20 -20
55 -20 77 0 23 -5 46 -12 53 -12 12 -57 13 -160 5z"/>
<path d="M9747 8800 c-4 -15 0 -20 14 -20 11 0 19 7 19 16 0 9 5 12 12 8 7 -4
8 -3 4 4 -12 19 -43 14 -49 -8z"/>
<path d="M11894 8721 c4 -5 -3 -7 -14 -4 -16 4 -19 1 -17 -23 1 -16 5 -31 9
-34 3 -3 8 -28 10 -57 2 -29 8 -56 13 -60 4 -4 5 -2 1 5 -5 8 0 12 15 12 21 0
59 33 59 52 0 11 -35 77 -53 101 -15 17 -33 24 -23 8z"/>
<path d="M9628 8630 c-13 -17 -31 -30 -44 -30 -25 0 -34 -21 -40 -95 -6 -70 5
-143 24 -161 14 -15 17 -14 33 7 20 27 31 69 18 69 -12 0 -11 31 1 50 8 13 12
12 25 -7 9 -13 24 -23 34 -23 42 0 55 56 21 90 -11 11 -20 31 -20 44 0 38 -12
86 -21 86 -5 0 -18 -13 -31 -30z"/>
<path d="M10798 8452 c-39 -8 -24 -72 17 -72 14 0 25 6 25 13 0 8 4 7 10 -3 7
-11 10 -6 10 21 0 30 -4 37 -22 41 -13 2 -30 2 -40 0z"/>
<path d="M11012 8440 c0 -14 2 -19 5 -12 2 6 2 18 0 25 -3 6 -5 1 -5 -13z"/>
<path d="M10660 8350 c0 -5 5 -10 11 -10 5 0 7 5 4 10 -3 6 -8 10 -11 10 -2 0
-4 -4 -4 -10z"/>
<path d="M11900 8350 c0 -5 -3 -9 -7 -9 -35 6 -44 -2 -41 -33 2 -27 7 -32 23
-30 36 6 65 31 65 57 0 18 -5 25 -20 25 -11 0 -20 -4 -20 -10z"/>
<path d="M7573 8183 c-7 -2 -13 -11 -13 -18 0 -22 -30 -26 -47 -5 -10 11 -25
20 -35 20 -24 0 -23 -31 2 -37 13 -4 19 -13 18 -29 -1 -13 -6 -24 -11 -24 -4
0 -6 -4 -3 -8 5 -9 -19 -24 -57 -36 -9 -3 -20 -12 -23 -21 -9 -23 36 -125 69
-156 26 -26 31 -27 49 -14 11 7 26 11 33 8 14 -5 51 12 73 33 17 18 -4 43 -30
36 -12 -3 -18 1 -18 11 0 13 -8 15 -37 11 -39 -5 -54 6 -46 36 3 11 13 16 28
15 18 -3 25 4 34 36 7 22 9 44 6 49 -3 6 2 10 12 11 51 2 103 60 71 80 -14 9
-55 11 -75 2z"/>
<path d="M12107 8183 c-11 -10 -8 -73 3 -73 6 0 10 11 10 24 0 13 3 31 6 40 6
16 -7 22 -19 9z"/>
<path d="M9980 7884 c-67 -11 -100 -25 -100 -44 0 -11 -4 -20 -10 -20 -5 0
-10 -9 -10 -20 0 -11 4 -20 9 -20 5 0 11 -10 13 -22 2 -13 8 -23 15 -23 18 0
24 -11 25 -44 1 -17 5 -31 10 -31 4 0 8 -7 8 -15 0 -9 6 -18 14 -21 8 -3 18
-24 21 -46 5 -28 10 -36 16 -27 5 8 4 18 -1 23 -6 6 -10 21 -10 34 0 19 4 22
20 17 11 -3 20 -2 20 3 0 6 28 13 63 15 86 8 136 17 143 29 3 5 11 5 19 -2 10
-8 14 -3 19 25 10 52 -6 63 -79 58 -78 -7 -111 15 -107 72 4 60 -15 71 -98 59z"/>
<path d="M8737 7840 c5 -20 43 -29 43 -10 0 6 -6 10 -12 10 -9 0 -8 4 2 10 12
8 9 10 -12 10 -21 0 -25 -4 -21 -20z"/>
<path d="M7699 7841 c-59 -8 -85 -27 -64 -47 18 -18 53 -18 72 1 8 8 19 13 24
10 5 -4 9 -1 9 4 0 6 3 10 8 10 26 -4 34 1 22 16 -7 8 -15 14 -19 14 -3 -1
-27 -5 -52 -8z"/>
<path d="M12156 7833 c-8 -9 -8 -51 2 -56 15 -10 62 6 62 20 0 8 4 12 8 9 5
-3 9 1 9 9 0 8 -4 12 -9 9 -4 -3 -14 -2 -20 3 -18 10 -44 14 -52 6z"/>
<path d="M9740 7740 c-59 -17 -71 -24 -76 -45 -7 -28 32 -70 73 -79 16 -4 41
-22 56 -41 15 -19 37 -35 47 -35 16 0 20 7 20 38 0 25 -6 41 -19 49 -15 9 -17
20 -13 61 3 37 1 49 -9 49 -8 0 -23 2 -34 5 -11 3 -31 2 -45 -2z"/>
<path d="M10016 7553 c-3 -3 -6 -22 -6 -42 0 -28 3 -33 11 -21 9 12 10 11 6
-7 -5 -21 -2 -23 36 -22 41 0 42 0 20 16 -13 8 -23 22 -23 29 0 8 -4 14 -10
14 -5 0 -10 6 -10 14 0 17 -14 28 -24 19z"/>
<path d="M8980 7500 c0 -5 5 -10 11 -10 5 0 7 5 4 10 -3 6 -8 10 -11 10 -2 0
-4 -4 -4 -10z"/>
<path d="M12054 7496 c-10 -26 1 -51 24 -54 19 -3 22 1 22 32 0 30 -4 36 -20
36 -11 0 -23 -6 -26 -14z"/>
<path d="M10275 7469 c-10 -15 3 -25 16 -12 7 7 7 13 1 17 -6 3 -14 1 -17 -5z"/>
<path d="M8784 7355 c-4 -8 -11 -15 -16 -15 -6 0 -23 -13 -39 -29 -15 -16 -30
-27 -33 -24 -2 3 -2 -4 0 -15 6 -20 -17 -32 -64 -32 -24 0 -117 -43 -126 -59
-3 -5 2 -15 11 -22 14 -12 16 -12 8 0 -6 11 -5 12 6 5 8 -5 25 -9 39 -10 14
-1 37 -2 53 -3 32 -1 71 -36 60 -54 -5 -8 -2 -8 9 1 13 11 16 10 14 -5 -1 -16
6 -18 52 -15 30 2 59 -1 65 -7 7 -5 32 -15 57 -21 27 -7 62 -27 88 -51 24 -21
47 -39 51 -39 4 0 52 -45 107 -100 77 -76 104 -110 114 -142 26 -90 47 -133
68 -144 33 -16 70 -6 74 20 2 12 11 22 23 24 47 7 63 33 75 120 12 92 6 394
-9 434 -5 13 -12 50 -16 81 -7 57 -28 82 -25 30 3 -44 1 -52 -19 -72 -17 -17
-25 -18 -53 -10 -18 5 -49 9 -68 8 -19 0 -40 -1 -47 0 -18 2 -123 91 -123 105
0 20 -47 59 -61 50 -7 -4 -37 -6 -67 -5 -46 2 -54 0 -49 -13 5 -13 -2 -16 -39
-16 -27 0 -51 6 -61 15 -9 10 -23 13 -35 9 -14 -4 -18 -2 -14 5 4 6 5 11 1 11
-3 0 -8 -7 -11 -15z"/>
<path d="M9810 7302 c0 -15 41 -53 67 -63 20 -7 30 -6 44 7 20 18 16 39 -9 49
-27 10 -102 15 -102 7z"/>
<path d="M11889 7272 l-32 -29 23 -21 c13 -12 32 -22 42 -22 22 0 78 27 78 38
-1 17 -55 62 -75 62 -2 0 -19 -13 -36 -28z"/>
<path d="M10270 7215 c0 -5 5 -17 10 -25 5 -8 10 -10 10 -5 0 6 -5 17 -10 25
-5 8 -10 11 -10 5z"/>
<path d="M12105 7120 c-3 -5 -1 -10 4 -10 6 0 11 5 11 10 0 6 -2 10 -4 10 -3
0 -8 -4 -11 -10z"/>
<path d="M11682 7003 c-21 -8 -3 -23 29 -23 19 0 29 5 29 15 0 15 -31 19 -58
8z"/>
<path d="M11795 7001 c-11 -5 -23 -7 -27 -4 -12 6 -21 -64 -10 -83 12 -21 43
-27 55 -11 5 7 5 1 1 -13 -6 -20 -4 -23 7 -13 11 8 17 8 26 -2 6 -7 9 -16 5
-21 -4 -4 -2 -4 5 -1 15 9 45 -2 37 -14 -3 -5 6 -4 20 2 36 17 21 53 -23 56
-66 3 -79 27 -40 70 l22 22 -27 11 c-15 5 -28 10 -29 9 -1 0 -11 -4 -22 -8z"/>
<path d="M11933 6950 c2 -48 3 -50 30 -48 16 1 31 6 33 10 3 5 10 6 15 3 5 -4
9 0 9 9 0 8 6 16 12 18 9 3 8 12 -5 31 -14 22 -25 27 -57 27 l-39 0 2 -50z"/>
<path d="M7398 6918 c-2 -15 5 -30 19 -41 27 -22 29 -41 8 -81 -16 -31 -20
-83 -6 -105 6 -10 13 -10 29 -2 27 14 50 5 56 -22 3 -15 4 -13 4 8 -1 17 3 38
7 48 8 19 51 23 57 6 6 -19 48 8 48 30 0 12 -15 26 -42 39 -24 11 -71 48 -105
81 -34 34 -64 61 -67 61 -3 0 -6 -10 -8 -22z"/>
<path d="M7867 6933 c-4 -3 -7 -13 -7 -21 0 -12 3 -12 15 -2 8 7 15 16 15 21
0 11 -14 12 -23 2z"/>
<path d="M7781 6840 c-19 -18 -41 -53 -52 -87 -23 -65 -19 -73 49 -73 43 0 47
-5 45 -57 -1 -8 13 -13 36 -13 30 0 37 4 38 22 1 11 6 24 11 27 5 3 13 25 19
48 9 36 8 45 -9 62 -14 16 -27 20 -51 16 -92 -16 -85 -17 -79 13 2 15 11 35
20 45 26 30 7 28 -27 -3z"/>
<path d="M11780 6849 c0 -6 -9 -8 -22 -4 -23 7 -23 7 1 -10 19 -15 25 -15 32
-4 12 19 11 29 -1 29 -5 0 -10 -5 -10 -11z"/>
<path d="M11852 6791 c-16 -16 -46 -34 -67 -40 -21 -5 -49 -20 -62 -33 -13
-12 -38 -27 -56 -33 -47 -15 -77 -66 -77 -132 0 -37 -6 -64 -18 -81 -27 -39
-32 -58 -19 -71 17 -17 41 -13 79 12 26 18 44 23 76 20 45 -4 48 -1 54 72 2
24 8 30 28 31 14 0 30 -4 37 -9 19 -14 71 2 78 24 4 11 13 18 20 15 14 -5 23
39 17 82 -3 18 -8 22 -25 17 -53 -15 -75 -28 -80 -46 -4 -13 -14 -19 -35 -19
-67 0 -43 52 36 76 52 17 55 17 101 -3 59 -25 86 -17 96 28 9 41 -7 71 -55 98
-53 30 -92 27 -128 -8z"/>
<path d="M11100 6750 c0 -5 5 -10 11 -10 5 0 7 5 4 10 -3 6 -8 10 -11 10 -2 0
-4 -4 -4 -10z"/>
<path d="M6553 6730 c-32 -13 -20 -50 17 -50 30 0 40 13 32 43 -5 19 -16 20
-49 7z"/>
<path d="M11926 6534 c-9 -8 -17 -23 -18 -32 0 -9 -2 -24 -2 -32 -1 -8 -7 -14
-14 -12 -14 3 -68 -23 -76 -37 -10 -16 5 -41 26 -41 32 0 58 19 58 43 0 14 12
32 30 45 19 14 30 32 30 47 0 31 -14 39 -34 19z"/>
<path d="M7852 6395 c-16 -34 -15 -34 8 -32 15 1 20 8 20 29 0 35 -13 36 -28
3z"/>
<path d="M7591 6361 c-24 -24 -21 -56 7 -78 34 -27 62 42 32 79 l-17 21 -22
-22z"/>
<path d="M7474 6273 c-15 -5 6 -53 24 -53 15 0 16 16 2 25 -6 4 -8 10 -5 15 7
11 -6 19 -21 13z"/>
<path d="M11410 5371 c0 -18 18 -21 30 -6 10 13 9 15 -9 15 -11 0 -21 -4 -21
-9z"/>
<path d="M4060 6930 c0 -14 6 -18 25 -16 14 1 28 6 33 11 4 4 1 5 -5 1 -7 -4
-13 -3 -13 2 0 5 -9 12 -20 15 -15 4 -20 0 -20 -13z"/>
<path d="M10265 6470 c-7 -23 5 -44 12 -22 3 6 9 9 15 6 6 -4 8 1 6 11 -5 27
-25 29 -33 5z"/>
<path d="M3196 4832 c-11 -19 25 -52 57 -52 l32 1 -33 29 c-33 31 -47 36 -56
22z"/>
<path d="M3324 4762 c-16 -11 -11 -79 7 -98 16 -15 17 -12 20 36 4 51 -7 75
-27 62z"/>
<path d="M10220 4580 c0 -5 -11 -20 -25 -34 -19 -19 -25 -35 -25 -68 0 -77 31
-91 45 -21 4 21 16 50 26 65 16 22 18 32 9 48 -11 21 -30 27 -30 10z"/>
<path d="M10053 4349 c-21 -21 -16 -59 10 -68 29 -11 55 3 63 35 8 30 6 32
-32 40 -17 3 -34 0 -41 -7z"/>
<path d="M6681 4804 c0 -11 3 -14 6 -6 3 7 2 16 -1 19 -3 4 -6 -2 -5 -13z"/>
<path d="M9429 4598 c0 -2 -3 -15 -5 -30 -4 -24 -1 -28 30 -33 19 -4 40 -4 46
0 16 10 -27 65 -51 65 -10 0 -19 -1 -20 -2z"/>
<path d="M9400 4323 c-1 -27 -27 -56 -45 -50 -9 4 -15 1 -15 -8 0 -8 7 -15 16
-15 23 0 81 29 96 48 7 10 8 14 4 10 -5 -5 -15 1 -23 12 -17 25 -33 26 -33 3z"/>
<path d="M9481 4095 c-13 -12 -37 -26 -53 -29 -33 -7 -32 5 -11 -116 6 -34 13
-46 28 -48 26 -3 73 41 81 76 3 15 10 40 14 55 13 38 2 87 -19 86 -9 0 -27
-11 -40 -24z"/>
<path d="M6753 4558 c-24 -12 -29 -33 -14 -57 24 -38 80 -9 85 43 3 22 -1 26
-23 25 -14 0 -36 -5 -48 -11z"/>
</g>
</svg>
